<?xml version="1.0" encoding="utf-8"?>
<!-- Generator: Adobe Illustrator 16.0.0, SVG Export Plug-In . SVG Version: 6.00 Build 0)  -->
<!DOCTYPE svg PUBLIC "-//W3C//DTD SVG 1.1//EN" "http://www.w3.org/Graphics/SVG/1.1/DTD/svg11.dtd">
<svg version="1.1" id="Layer_1" xmlns="http://www.w3.org/2000/svg" xmlns:xlink="http://www.w3.org/1999/xlink" x="0px" y="0px"
	 width="700px" height="400px" viewBox="0 0 700 400" enable-background="new 0 0 700 400" xml:space="preserve">
<linearGradient id="SVGID_1_" gradientUnits="userSpaceOnUse" x1="740.6182" y1="320.5879" x2="474.671" y2="2.9134" gradientTransform="matrix(1 0.0077 0.0077 -1 -48.0629 296.3799)">
	<stop  offset="0" style="stop-color:#426DB3"/>
	<stop  offset="0.1304" style="stop-color:#3F7AB8"/>
	<stop  offset="0.7617" style="stop-color:#11BFD7"/>
</linearGradient>
<path opacity="0.1246" fill="url(#SVGID_1_)" enable-background="new    " d="M700,382.612
	c-52.69,22.961-128.797,14.94-170.818-24.579c-13.023-12.264-24.111-27.102-39.816-35.686
	c-34.436-18.837-83.567-3.687-111.545-31.203c-24.182-23.772-17.37-65.281-35.341-94.026c-7.79-12.483-18.324-23.23-29.836-32.399
	c-41.998-33.42-35.866-118.061,6.609-143.78l373.684,12.638"/>
<linearGradient id="SVGID_2_" gradientUnits="userSpaceOnUse" x1="663.1758" y1="280.085" x2="444.8848" y2="19.3361" gradientTransform="matrix(1 0 0 -1 -46 295)">
	<stop  offset="0" style="stop-color:#426DB3"/>
	<stop  offset="0.1304" style="stop-color:#3F7AB8"/>
	<stop  offset="0.7617" style="stop-color:#11BFD7"/>
</linearGradient>
<path opacity="0.1246" fill="url(#SVGID_2_)" enable-background="new    " d="M483.926-52.74l12.276,438.982"/>
<path fill="#F05424" d="M701,0v357.879c-53.438,23.773-121.013,13.447-164.084-26.436c-13.349-12.375-24.749-27.389-40.797-36
	c-35.188-18.9-85.064-3.094-113.75-30.877c-24.791-24-18.188-66.291-36.701-95.403c-8.022-12.638-18.827-23.491-30.613-32.732
	C272.057,102.754,267.707,26.505,310.726,0H701z"/>
<g>
	<g>
		<g>
			<rect x="417.241" y="87.569" fill="#D6DCDB" width="219.34" height="129.564"/>
		</g>
	</g>
</g>
<g>
	<g>
		<g>
			<rect x="423.329" y="90.104" fill="#FFFFFF" width="207.163" height="124.496"/>
		</g>
	</g>
</g>
<g>
	<g>
		<g>
			<rect x="444.89" y="174.977" fill="#F79A41" width="9.539" height="23.947"/>
		</g>
	</g>
</g>
<g>
	<g>
		<g>
			<rect x="466.385" y="153.955" fill="#418ECC" width="9.539" height="44.969"/>
		</g>
	</g>
</g>
<g>
	<g>
		<g>
			<rect x="487.879" y="158.604" fill="#F79A41" width="9.539" height="40.319"/>
		</g>
	</g>
</g>
<g>
	<g>
		<g>
			<rect x="509.373" y="135.84" fill="#8265AC" width="9.539" height="63.084"/>
		</g>
	</g>
</g>
<g opacity="0.15">
	<g>
		<g>
			<rect x="466.385" y="153.955" opacity="0.26" fill="#418ECC" enable-background="new    " width="4.377" height="44.969"/>
		</g>
	</g>
</g>
<g opacity="0.15">
	<g>
		<g>
			<rect x="444.89" y="174.977" opacity="0.26" fill="#F79A41" enable-background="new    " width="4.378" height="23.947"/>
		</g>
	</g>
</g>
<g>
	<g>
		<g>
			<rect x="509.373" y="135.84" opacity="0.26" fill="#8265AC" enable-background="new    " width="4.378" height="63.084"/>
		</g>
	</g>
</g>
<g opacity="0.15">
	<g>
		<g>
			<rect x="487.879" y="158.604" opacity="0.26" fill="#F79A41" enable-background="new    " width="4.378" height="40.319"/>
		</g>
	</g>
</g>
<g>
	<g>
		<g>
			<polygon fill="#6773B7" points="523.96,205.516 438.591,205.516 438.591,114.613 439.892,114.613 439.892,204.214 
				523.96,204.214 			"/>
		</g>
	</g>
</g>
<g>
	<g>
		<g>
			<polygon fill="#6773B7" points="447.358,163.762 446.488,162.793 468.821,142.74 489.506,147.234 511.905,122.298 
				512.873,123.168 489.969,148.667 469.195,144.155 			"/>
		</g>
	</g>
</g>
<g>
	<g>
		<g>
			<polygon fill="#6773B7" points="514.628,126.853 508.313,120.796 516.467,118.615 			"/>
		</g>
	</g>
</g>
<g>
	<g>
		<g>
			<g>
				<rect x="532.043" y="169.277" fill="#8265AC" width="8.006" height="8.004"/>
			</g>
		</g>
	</g>
	<g>
		<g>
			<g>
				<rect x="532.043" y="183.302" fill="#F79A41" width="8.006" height="8.005"/>
			</g>
		</g>
	</g>
	<g>
		<g>
			<g>
				<rect x="542.254" y="186.758" fill="#F0EEEE" width="25.375" height="4.549"/>
			</g>
		</g>
	</g>
	<g>
		<g>
			<g>
				<rect x="542.254" y="172.732" fill="#F0EEEE" width="25.375" height="4.549"/>
			</g>
		</g>
	</g>
</g>
<g>
	<g>
		<g>
			<g>
				<rect x="579.121" y="169.277" fill="#418ECC" width="8.004" height="8.004"/>
			</g>
		</g>
	</g>
	<g>
		<g>
			<g>
				<rect x="579.121" y="183.302" fill="#F79A41" width="8.004" height="8.005"/>
			</g>
		</g>
	</g>
	<g>
		<g>
			<g>
				<rect x="589.332" y="186.758" fill="#F0EEEE" width="25.374" height="4.549"/>
			</g>
		</g>
	</g>
	<g>
		<g>
			<g>
				<rect x="589.332" y="172.732" fill="#F0EEEE" width="25.374" height="4.549"/>
			</g>
		</g>
	</g>
</g>
<g>
	<g>
		<g>
			<g>
				<rect x="538.876" y="120.106" fill="#F0EEEE" width="75.014" height="1.709"/>
			</g>
		</g>
	</g>
	<g>
		<g>
			<g>
				<rect x="532.987" y="124.244" fill="#F0EEEE" width="80.901" height="1.709"/>
			</g>
		</g>
	</g>
	<g>
		<g>
			<g>
				<rect x="532.987" y="128.383" fill="#F0EEEE" width="80.901" height="1.709"/>
			</g>
		</g>
	</g>
	<g>
		<g>
			<g>
				<rect x="532.987" y="132.521" fill="#F0EEEE" width="80.901" height="1.709"/>
			</g>
		</g>
	</g>
	<g>
		<g>
			<g>
				<rect x="532.987" y="136.659" fill="#F0EEEE" width="80.901" height="1.709"/>
			</g>
		</g>
	</g>
	<g>
		<g>
			<g>
				<rect x="532.987" y="140.797" fill="#F0EEEE" width="80.901" height="1.709"/>
			</g>
		</g>
	</g>
	<g>
		<g>
			<g>
				<rect x="532.987" y="144.936" fill="#F0EEEE" width="80.901" height="1.709"/>
			</g>
		</g>
	</g>
	<g>
		<g>
			<g>
				<rect x="532.987" y="149.073" fill="#F0EEEE" width="80.901" height="1.709"/>
			</g>
		</g>
	</g>
	<g>
		<g>
			<g>
				<rect x="544.532" y="153.212" fill="#F0EEEE" width="69.356" height="1.709"/>
			</g>
		</g>
	</g>
</g>
<g>
	<g>
		<g>
			<g>
				<path fill="#734024" d="M641.284,86.522c0,0.932-0.757,1.688-1.689,1.688H414.227c-0.933,0-1.688-0.756-1.688-1.688l0,0
					c0-0.933,0.756-1.689,1.688-1.689h225.368C640.527,84.833,641.284,85.59,641.284,86.522L641.284,86.522z"/>
			</g>
		</g>
	</g>
</g>
<g>
	<g>
		<g>
			<g>
				<path fill="#734024" d="M641.284,218.182c0,0.934-0.757,1.688-1.689,1.688H414.227c-0.933,0-1.688-0.756-1.688-1.688l0,0
					c0-0.933,0.756-1.688,1.688-1.688h225.368C640.527,216.492,641.284,217.249,641.284,218.182L641.284,218.182z"/>
			</g>
		</g>
	</g>
</g>
<g>
	<g>
		<g>
			<g>
				<g>
					<g>
						<path fill="#734024" d="M379.88,366.83l1.222-65.385h-4.35l1.225,65.385c0.015,0.663,0.439,1.202,0.951,1.202
							S379.865,367.493,379.88,366.83z"/>
					</g>
				</g>
			</g>
			<g>
				<g>
					<g>
						<path fill="#734024" d="M339.907,359.182l25.261-60.32l-4.042-1.604l-22.989,61.226c-0.232,0.622-0.035,1.277,0.441,1.467
							C339.053,360.137,339.648,359.795,339.907,359.182z"/>
					</g>
				</g>
			</g>
			<g>
				<g>
					<g>
						<path fill="#734024" d="M417.948,359.182l-25.263-60.32l4.043-1.604l22.988,61.226c0.231,0.622,0.033,1.277-0.44,1.467
							C418.801,360.137,418.206,359.795,417.948,359.182z"/>
					</g>
				</g>
			</g>
		</g>
		<g opacity="0.3">
			<g>
				<g>
					<g>
						<path fill="#010101" d="M376.784,303.166h3.241l-1.213,64.851c0.037,0.009,0.074,0.017,0.114,0.017
							c0.513,0,0.938-0.539,0.952-1.202l1.223-65.386h-4.351L376.784,303.166z"/>
					</g>
				</g>
			</g>
		</g>
	</g>
	<g>
		<g>
			<g>
				<g>
					<path fill="#E9F6F5" d="M408.898,304.533c-4.412,3.591-10.949,6.896-27.553,7.222c-21.842,0.429-33.275-2.049-39.479-13.313
						c-10.365-18.811,2.604-79.582,23.061-66.118c17.101,11.253,20.525,47.179,22.786,52.145
						C389.975,289.434,419.604,295.824,408.898,304.533z"/>
				</g>
			</g>
		</g>
	</g>
	<g>
		<g>
			<g>
				<path fill="#CFDFE0" d="M385.131,307.101c-21.84,0.433-33.273-2.046-39.479-13.311c-7.074-12.841-3.278-45.228,6.351-60.217
					c-12.322,11.425-18.077,50.458-10.136,64.868c6.205,11.265,17.638,13.741,39.48,13.313c16.603-0.326,23.14-3.631,27.552-7.222
					c1.502-1.223,2.21-2.398,2.311-3.531C406.781,304.133,399.987,306.81,385.131,307.101z"/>
			</g>
		</g>
	</g>
</g>
<g>
	<g>
		<path fill="#F9F7F0" d="M394.449,163.313c1.492-4.305,2.87-8.831,5.21-6.545c2.463,2.406,2.266,2.116,1.371,5.454
			C400.137,165.56,393.193,166.935,394.449,163.313z"/>
	</g>
	<path fill="#2EA3DC" d="M395.107,180.496c1.754-6.583,2.631-15.188,2.631-15.188l-3.286-2.213c0,0-6.688,13.751-10.306,24.189
		l-18.646-4.787l-2.272-0.463l6.066,12.123c0,0,17.957,2.614,19.061,1.996C389.459,195.536,393.32,187.197,395.107,180.496z"/>
	<path fill="#3B7BBF" d="M388.355,196.154c-1.104,0.618-19.061-1.996-19.061-1.996l-6.066-12.123l2.272,0.463
		c1.674,0.707,4.39,3.42,6.593,6.302c1.59,2.081,2.469,2.821,4.872,3.723c3.677,1.379,7.584,2.357,9.052,2.462
		c2.481,0.166,2.726,0.287,3.254-0.441C389.271,194.543,389.459,195.536,388.355,196.154z"/>
	<path fill="#2EA3DC" d="M344.458,218.637c1.163,3.018,1.44,6.309,0.736,9.473c-1.395,6.279,0.192,6.699,0.192,6.699
		s8.511,5.399,15.587,7.607c5.069,1.576,9.394,1.313,9.271-4.29l-0.004-0.077c-0.01-0.339-0.018-0.663-0.024-0.982
		c-0.239-12.584,2.386-13.224,3.031-27.313c0.668-14.458-3.197-22.521-7.022-26.018c-3.834-3.49-9.065-3.619-18.909-1.293
		c-7.393,1.741-9.829,3.704-9.769,9.174c0.021,1.819,0.314,4.026,0.796,6.736C339.565,205.236,342.479,213.5,344.458,218.637z"/>
	<path fill="#3B7BBF" d="M344.458,218.637c1.163,3.018,1.44,6.309,0.736,9.473c-1.395,6.279,0.192,6.699,0.192,6.699
		s8.511,5.399,15.587,7.607l6.61-0.628l2.646-2.08l0.012-1.659c-0.01-0.339-0.018-0.663-0.024-0.982
		c-1.511,0.146-4.946,0.322-9.985-0.26c-3.892-0.44-7.432-1.555-9.791-2.451c-1.72-0.651-2.728-2.431-2.406-4.241
		c0.427-2.476,0.934-6.022,0.915-8.779c-0.021-2.771-1.303-7.452-2.352-10.83c-0.801-2.594-1.073-5.305-0.881-8.009
		c0.328-4.677-0.008-9.128-0.008-9.128l-5.242-2.839l-2.919,1.087c0.021,1.819,0.314,4.026,0.796,6.736
		C339.565,205.236,342.479,213.5,344.458,218.637z"/>
	<path fill="#F3D4B4" d="M344.35,245.346c-0.605,0.1-2.154-2.619-2.154-2.619l0.649-0.861c0.368-0.487,0.879-0.848,1.462-1.025
		l0.106-0.031c0.521-0.16,1.096,0.025,1.401,0.48c0.445,0.658,1.132,1.411,1.929,1.38h0.014c0.028,0.017,0.056,0.017,0.084,0.017
		C348.546,242.699,344.956,245.245,344.35,245.346z"/>
	<g>
		<path fill="#0A1B33" d="M368.234,157.875c0,0,0.656,1.834-0.336,3.291l-4.06-5.494l2.831-0.025L368.234,157.875z"/>
		<path fill="#F9F7F0" d="M346.197,165.14c0.179,7.084,6.29,11.19,6.29,11.19l-0.407,6.448l4.121,2.672l2.829,1.831l1.623-3.392
			l0.225-4.157c0.055-0.967,0.748-1.772,1.701-1.976c1.055-0.226,2.521-0.841,4.02-2.43c0.09-0.097,0.18-0.202,0.258-0.317
			c0.008-0.005,0.008-0.005,0.008-0.005c2.681-3.65,3.693-17.628-5.478-21.597C351.916,149.297,346.012,158.045,346.197,165.14z"/>
		<path fill="#E6C49F" d="M356.479,181.582l-0.277,3.867l2.828,1.831l1.625-3.392l0.224-4.157c0.056-0.967,0.748-1.772,1.701-1.976
			c1.055-0.226,2.521-0.841,4.021-2.43c0.088-0.097,0.178-0.202,0.256-0.317c-0.185,0.109-2.4,1.408-5.769,1.784
			C358.598,177.07,356.657,179.083,356.479,181.582z"/>
		<path fill="#0A1B33" d="M356.088,167.323c-0.359,0.146-0.701-0.407-0.701-0.407s-1.988-4.466-2.674-5.15
			c-1.222-1.239-4.105-1.125-4.334,2.705c-0.18,2.967,3.325,9.29,4.4,11.148c0.162,0.293,0.098,0.685-0.18,0.896
			c-0.113,0.082-0.261,0.131-0.392,0.146h-0.05c-0.163,0-0.325-0.048-0.455-0.163c-2.266-1.989-12.24-11.556-4.319-20.552
			c0,0,6.291,0.408,7.253,3.439c0.961,3.047,1.646,7.155,1.646,7.155S356.462,167.16,356.088,167.323z"/>
		<path fill="#0A1B33" d="M368.234,157.875c0,0-5.506-4.292-13.865,0.937l-6.846-1.748c0,0-0.287-0.093-0.135-1.119
			c0.15-1.025,0.907-11.091,12.899-8.829C367.182,148.418,371.404,153.197,368.234,157.875z"/>
	</g>
	<path fill="#E3BA97" d="M346.033,240.904c0,0,0.967,1.215,1.254,1.373c0.286,0.158,0.336-0.178,0.227-0.413
		C347.405,241.627,346.076,240.583,346.033,240.904z"/>
	<path fill="#0A1B33" d="M352.209,176.661h-0.05c-0.163,0-0.325-0.048-0.455-0.163c-2.266-1.989-12.24-11.556-4.319-20.552
		c0,0-0.392,1.564-0.229,2.869C347.157,158.815,342.104,166.98,352.209,176.661z"/>
	<g>
		<path fill="#181B46" d="M340.874,358.805c0.433,1.661,0.268,2.253,0.438,3.338c0.212,1.343,1.446,1.829,2.159,2.933
			c0.787,1.212,2.023,3.159-2.804,3.259c-5.166,0.104-8.227-0.255-7.351-3.175c0.878-2.919,1.046-4.208,0.986-5.159
			c-0.057-0.955,0.004-1.945,0.587-2.517C335.476,356.913,340.112,355.885,340.874,358.805z"/>
		<path fill="#E4362F" d="M341.965,265.951c0,0-8.156-13.018,3.422-31.143c0,0,9.023,4.036,16.249,4.525
			c5.689,0.383,8.58-0.206,8.58-0.206s0.479,17.429,0.499,26.822L341.965,265.951L341.965,265.951z"/>
		<g>
			<g>
				<path fill="#E4362F" d="M347.461,303.777c2.232-9.408-7.028-11.064-9.952-4.26c-4.135,9.63-3.806,51.92-3.585,58.062
					c0.028,0.804,0.449,0.653,0.898,0.49c1.318-0.476,2.421-0.663,2.943-0.552c1.02,0.215,3.042,1.267,3.042,1.267
					C341.679,350.416,345.303,312.891,347.461,303.777z"/>
				<path fill="#E4362F" d="M355.788,267.221c0.978-11.688-3.483-20.768-10.47-16.906c-2.941,1.623-4.017,4.873-4.411,7.934
					c-0.397,3.061-2.561,34.861-3.319,40.607c-1.71,12.956,8.149,9.466,9.219,5.875C349.504,295.666,355.256,273.59,355.788,267.221
					z"/>
			</g>
		</g>
		<path fill="#E4362F" d="M372.248,303.171c0.365-8.771-6.969-8.263-9.932-1.446c-6.396,14.725,0.047,46.071,1.36,60.859
			c1.433-2.381,4.149-3.188,4.787-3.137c1.037,0.079,1.599,0.896,1.599,0.896C369.854,342.204,371.855,312.549,372.248,303.171z"/>
		<path fill="#E4362F" d="M362.646,304.123c1.094,3.58,10.514,7.725,9.529-5.311c-0.438-5.783-1.601-37.713-1.824-40.791
			c-0.227-3.076-0.738-7.576-2.228-8.138c-7.438-2.807-14.651,6.375-12.692,17.933C356.736,275.542,360.378,296.693,362.646,304.123
			z"/>
		<path fill="#181B46" d="M370.037,360.608c0.391,0.758,2.258,2.514,4.847,3.672c2.589,1.153,8.074,1.696,5.027,2.716
			c-3.048,1.018-6.603,0.403-8.401,0.114c-1.8-0.291-3.544-0.329-5.668-0.343c-2.8-0.021-2.82-0.19-2.445-3.351
			C363.917,359.072,368.775,358.153,370.037,360.608z"/>
	</g>
	<path fill="#FFE0BD" d="M343.838,238.313l1.438,2.023c0,0,2.579-0.4,3.796,1.982c1.216,2.384-3.088,5.367-4.312,4.267
		c-1.225-1.103-3.885-6.188-3.885-6.188L343.838,238.313z"/>
	<path fill="#2EA3DC" d="M333.085,231.887c3.887,3.92,7.966,9.432,7.966,9.432l0.743-0.5l2.839-1.926c0,0-5.826-12.203-7.481-18.162
		c-0.8-2.895-2.178-5.233-3.43-6.922c0.111-0.105,0.214-0.213,0.324-0.326c4.223-4.496,7.515-10.295,10.02-13.849
		c1.208-1.715,2.04-3.684,2.397-5.723c0.241-1.39,0.264-2.808,0.04-4.221c-0.357-2.228-1.294-4.28-3.449-4.809
		c-0.808-0.2-1.632-0.121-2.368,0.178c-0.821,0.327-1.542,0.936-2.029,1.718c-3.292,5.326-12.618,19.745-14.084,23.298
		c-0.255,0.626-0.418,1.237-0.499,1.821c-0.044,0.195-0.073,0.398-0.101,0.625C323.409,218.355,329.2,227.967,333.085,231.887z"/>
	<path fill="#3B7BBF" d="M333.085,231.887c3.887,3.92,7.966,9.432,7.966,9.432l0.743-0.5c0,0-4.276-5.955-6.295-8.369
		c-3.094-3.693-5.272-6.576-7.12-9.971c-1.847-3.394-2.715-9.933-1.738-11.768c0.971-1.837,6.425-9.947,7.595-11.506
		c1.17-1.553,10.742-11.104,7.995-13.765c-0.44-0.426-1.058-0.412-1.544-0.381c-0.821,0.327-1.542,0.936-2.029,1.718
		c-3.292,5.326-12.618,19.745-14.084,23.298c-0.255,0.626-0.418,1.237-0.499,1.821c-0.044,0.195-0.073,0.398-0.101,0.625
		C323.409,218.355,329.2,227.967,333.085,231.887z"/>
	<path fill="#E4362F" d="M348.341,240.445c0,0-1.315,4.642-7.162,7.309c-5.042,2.303,8.076,3.616,8.368,3.105
		c0.292-0.514,2.814-8.979,2.814-8.979L348.341,240.445z"/>
</g>
<g>
	<g>
		<g>
			<g>
				<g>
					<g>
						<g>
							<path fill="#734024" d="M448.816,363.155l1.229-65.787h-4.375l1.229,65.787c0.015,0.666,0.442,1.207,0.957,1.207
								C448.373,364.362,448.802,363.821,448.816,363.155z"/>
						</g>
					</g>
				</g>
				<g>
					<g>
						<g>
							<path fill="#734024" d="M408.597,355.459l25.417-60.691l-4.065-1.615l-23.13,61.601c-0.232,0.625-0.035,1.286,0.442,1.479
								C407.739,356.418,408.338,356.074,408.597,355.459z"/>
						</g>
					</g>
				</g>
				<g>
					<g>
						<g>
							<path fill="#734024" d="M487.12,355.459l-25.418-60.691l4.066-1.615l23.131,61.601c0.231,0.625,0.032,1.286-0.443,1.479
								C487.978,356.418,487.379,356.074,487.12,355.459z"/>
						</g>
					</g>
				</g>
			</g>
		</g>
		<g>
			<g>
				<g>
					<path fill="#E9F6F5" d="M479.718,274.857c0,25.229-14.265,31.272-31.859,31.272c-17.596,0-31.858-6.043-31.858-31.272
						c0-25.232,14.264-49.618,31.858-49.618S479.718,249.625,479.718,274.857z"/>
				</g>
			</g>
		</g>
		<g>
			<g>
				<g>
					<path fill="#CFDFE0" d="M450.416,300.45c-17.596,0-31.859-6.043-31.859-31.275c0-8.687,1.692-17.276,4.628-24.802
						c-4.49,8.712-7.186,19.518-7.186,30.484c0,25.229,14.264,31.272,31.858,31.272c13.796,0,25.542-3.716,29.974-17.479
						C472.279,297.791,462.081,300.45,450.416,300.45z"/>
				</g>
			</g>
		</g>
	</g>
	<g>
		<g>
			<g>
				<g>
					<path fill="#3B7BBF" d="M432.585,268.246c0,0-4.095,8.722-4.928,14.551c-1.218,8.508,0.582,12.195,11.452,12.534
						c10.873,0.34,14.042-1.778,19.227-1.778c5.184,0,11.209-9.83,4.533-21.5L432.585,268.246z"/>
				</g>
			</g>
		</g>
		<g>
			<path fill="#FFE0BD" d="M437.254,339.696l-0.198,3.302c0,0-3.213,9.465-3.371,11.854c-0.274,4.162,1.563,8.822,3.349,8.795
				c2.037-0.028,4.844-2.64,6.095-7.854c0.847-3.532-0.526-10.45-0.037-12.073c0.488-1.626,1.475-4.771,1.475-4.771L437.254,339.696
				z"/>
			<path fill="#181B46" d="M443.381,353.765c-1.408,1.421-4.271,4.412-5.408,4.354c-1.18-0.06-3.247-3.687-3.932-5.185
				c-0.195,0.808-0.327,1.48-0.356,1.917c-0.274,4.162,1.563,8.822,3.349,8.795c2.037-0.028,4.844-2.64,6.095-7.854
				C443.269,355.198,443.344,354.507,443.381,353.765z"/>
			<g>
				<g>
					<g>
						<g>
							<path fill="#2EA3DC" d="M444.401,341.306c0,0,12.989-41.014,14.609-46.062c1.622-5.045,2.933-14.641-4.588-16.313
								c-6.494-1.445-9.218,8.238-10.405,14.201c-1.188,5.965-7.171,45.773-7.171,45.773s-0.706,2.237,3.172,2.879
								S444.401,341.306,444.401,341.306z"/>
						</g>
					</g>
				</g>
				<g>
					<g>
						<g>
							<path fill="#3B7BBF" d="M452.14,278.887c-2.82,3.856-4.251,11.053-5.05,15.057c-1.188,5.965-7.108,46.588-7.108,46.588
								s0.997,0.513,3.158,1.478c-0.227-0.027-0.786-0.021-1.031-0.003c-4.182,0.299-5.198-2.283-5.198-2.283
								s5.921-40.623,7.108-46.588C445.056,287.926,447.267,279.875,452.14,278.887z"/>
						</g>
					</g>
				</g>
			</g>
		</g>
		<g>
			<path fill="#FFE0BD" d="M420.966,338.119l-0.433,3.279c0,0-3.877,9.212-4.205,11.582c-0.572,4.132,0.93,8.911,2.714,9.011
				c2.032,0.114,5.019-2.289,6.636-7.402c1.098-3.463,0.221-10.46,0.823-12.045s1.808-4.655,1.808-4.655L420.966,338.119z"/>
			<path fill="#181B46" d="M426.076,352.585c-1.506,1.319-4.574,4.099-5.703,3.961c-1.173-0.143-2.979-3.907-3.555-5.451
				c-0.25,0.789-0.432,1.455-0.49,1.887c-0.572,4.132,0.93,8.911,2.714,9.011c2.032,0.115,5.019-2.289,6.636-7.402
				C425.861,354.01,425.986,353.323,426.076,352.585z"/>
			<g>
				<g>
					<g>
						<g>
							<path fill="#2EA3DC" d="M427.979,340.231c0,0,15.874-39.985,17.852-44.902c1.977-4.92,3.963-14.396-3.417-16.601
								c-6.374-1.903-9.78,7.563-11.389,13.428c-1.609,5.861-10.408,45.146-10.408,45.146s-0.863,2.186,2.959,3.1
								C427.396,341.313,427.979,340.231,427.979,340.231z"/>
						</g>
					</g>
				</g>
				<g>
					<g>
						<g>
							<path fill="#3B7BBF" d="M440.139,278.521c-3.088,3.646-5.026,10.721-6.107,14.66c-1.608,5.861-10.405,45.962-10.405,45.962
								s0.96,0.582,3.047,1.699c-0.223-0.046-0.783-0.076-1.029-0.076c-4.19,0-5.022-2.647-5.022-2.647s8.796-40.102,10.405-45.962
								C432.429,287.032,435.208,279.16,440.139,278.521z"/>
						</g>
					</g>
				</g>
			</g>
		</g>
		<g>
			<path id="XMLID_453_" fill="#0A1B33" d="M439.588,185.318c0,0,1.438-6.179,11.738-4.194c9.829,1.894,9.209,15.607,10.353,19.337
				c0.896,2.915,2.748,7.085,3.518,8.771c0.185,0.406-0.021,0.883-0.442,1.022c-3.633,1.208-19.056,5.731-29.574-0.578
				c-0.928-0.557-1.692-1.372-2.099-2.376c-0.182-0.449-0.306-0.951-0.283-1.466c0.071-1.646,1-3.646,0.285-8.436
				C432.368,192.61,433.226,185.174,439.588,185.318z"/>
			<path id="XMLID_458_" fill="#F9F7F0" d="M436.563,198.566c0,0-1.311,1.621-0.835,4.338c0.479,2.717,2.894,2.625,2.894,2.625
				l0.325-2.696l-0.716-4.742L436.563,198.566z"/>
			<path id="XMLID_459_" fill="#F9F7F0" d="M459.563,198.566c0,0,1.311,1.621,0.835,4.338c-0.479,2.717-2.894,2.625-2.894,2.625
				l-0.325-2.696l0.716-4.742L459.563,198.566z"/>
			<path id="XMLID_530_" fill="#8265AC" d="M461.229,251.043c-0.148,2.792-0.148,3.969,0.179,7.373
				c0.297,3.134,1.349,14.613,1.349,14.613s-2.488,0.996-6.509,1.752c-5.521,1.051-15.024-1.773-23.844-4.77
				c0,0,3.237-7.955,3.284-14.498c0.011-0.891-0.007-1.813-0.058-2.756c-0.047-1.213-0.464-3.374-0.944-6.027
				c-0.092-0.498-0.183-1.014-0.273-1.545c-0.332-1.916-0.664-4.021-0.898-6.164c-0.233-2.151-0.378-4.342-0.319-6.429
				c-0.801-5.755,0.961-11.418,0.961-11.418s7.269-3.036,10.34-3.448c0,0,5.446-1.246,9.271,0.022
				c5.006,1.659,7.745,2.625,9.991,3.854c0.241,0.131,1.7,4.398,1.061,8.155c-0.939,5.507-2.322,13.063-3.066,17.605
				C461.453,249.178,461.259,250.51,461.229,251.043z"/>
			<path id="XMLID_524_" opacity="0.3" fill="#F79A41" enable-background="new    " d="M462.756,274.375c0,0-2.488-0.35-6.509,0.406
				c-1.532-3.953-1.052-18.305-1.052-18.305c-4.289-0.715-10.814-3.289-10.814-3.289c-1.716,0.813-7.023,1.972-8.692,2.326
				c0.011-0.891-0.007-1.813-0.058-2.756c-0.047-1.213-0.464-3.374-0.943-6.027c2.007-1.4,5.735,1.691,5.735,1.691l18.828-2.955
				c0,0,1.354,0.795,2.499,1.898c-0.297,1.812-0.491,3.144-0.521,3.677c-0.148,2.792-0.148,3.97,0.179,7.373
				C461.704,261.55,462.756,274.375,462.756,274.375z"/>
			<path id="XMLID_531_" fill="#F9F7F0" d="M458.748,195.468c0,2.762-0.555,9.185-2.288,13.44c-1.11,2.728-2.935,4.66-4.873,5.822
				c-0.021,1.104-0.046,2.557,0.728,2.677c0.224,0.491,0.503,0.616,0.354,1.39c-0.521,2.745-3.718,5.782-4.502,6.543
				c-0.783,0.762-1.274,0-1.274,0c-0.908-0.994-1.723-2.306-2.333-3.449c-0.396-0.742-0.705-1.418-0.897-1.894
				c-0.491-1.212,0.217-2.185,0.217-2.185c0.847-0.103,0.538-1.922,0.47-2.895c-1.636-1.166-3.18-3.163-4.329-5.507
				c-2.306-4.708-2.432-10.69-2.432-13.944c0-5.84,4.735-10.581,10.58-10.581C454.012,184.887,458.748,189.628,458.748,195.468z"/>
			<path id="XMLID_525_" fill="#E6C49F" d="M451.444,214.781c-0.624,0.229-3.169,1.219-3.66,2.289
				c-0.557,1.229-0.869,3.219-1.391,3.779c-0.439,0.469-1.492,0.902-1.836,1.041c-0.396-0.742-0.705-1.42-0.897-1.895
				c-0.491-1.212,0.217-2.186,0.217-2.186c0.847-0.102,0.538-1.92,0.47-2.894c0,0,1.783,0.731,3.346,0.612
				C449.122,215.417,450.82,214.982,451.444,214.781z"/>
			<path id="XMLID_464_" fill="#F9F7F0" d="M455.311,242.768c0,0,1.682-0.32,2.217-0.32c0.536,0-1,4.808-1,4.808
				s-0.555-0.59-1.217-0.696c-0.66-0.106-0.41-3.735-0.41-3.735L455.311,242.768z"/>
			<path id="XMLID_461_" fill="#8265AC" d="M463.76,221.604c0,0,4.785,2.459,4.499,6.178c-0.287,3.719-5.888,24.025-6.854,26.695
				c-0.964,2.666-25.368-5.437-25.368-5.437s0.764-3.265,1.431-4.157c0,0,16.683,1.776,18.874,2.635c0,0,3.384-16.11,4.434-18.972
				C461.823,225.688,463.76,221.604,463.76,221.604z"/>
			<path id="XMLID_528_" fill="#8265AC" d="M455.647,246.896c-2.533,1.43-21.803,9.438-23.587,8.938
				c-1.789-0.503-3.935-2.077-4.222-6.796c-0.252-4.186,2.174-20.686,2.74-24.507c0.074-0.505,0.354-1.287,0.721-1.647
				c0.12-0.119,0.245-0.258,0.372-0.354c1.225-0.928,2.481-1.355,2.481-1.355c0.239,0.544,0.177,2.774,0.475,6.691
				c0.034,0.445,0.006,0.894-0.086,1.326c-0.48,2.281-1.063,5.258-1.029,6.836c0,0.091,0.006,0.183,0.019,0.287
				c0.166,1.658,1.395,4.803,1.418,6.129c0.041,3.135,0.028,3.576,0.021,3.627c0.693-0.114,3.096-0.543,6.029-1.064
				c6.057-1.084,14.36-2.578,14.36-2.578C456.082,243.962,455.647,246.896,455.647,246.896z"/>
			<path id="XMLID_456_" fill="#0A1B33" d="M435.441,199.615c0,0,3.349-0.564,5.279-3.074c1.485-1.93,2.345-4.658,2.345-4.658
				s1.17,2.514,5.103,4.301c3.931,1.788,8.201,3.002,12.179,3.431c0,0,0.262-9.15-2.741-12.868
				c-3.004-3.718-10.797-5.862-16.087-2.645C436.229,187.319,435.441,199.615,435.441,199.615z"/>
			<path id="XMLID_523_" opacity="0.39" fill="#CC902A" enable-background="new    " d="M433.605,247.395
				c-1.952-1.666,0.378-4.847,0.212-5.953c-0.161-1.109-0.161-1.299-0.305-2.42c-0.068-0.532-0.178-1.922,0.019-2.705
				c0.166,1.66,1.395,4.804,1.418,6.131c0.041,3.134,0.029,3.574,0.021,3.626c0.693-0.114,7.154-1.271,10.089-1.791
				C445.746,244.641,434.92,248.516,433.605,247.395z"/>
			<path id="XMLID_462_" fill="#F9F7F0" d="M437.04,245.713l-2.065,0.362c0,0-2.344-0.204-3.869-0.107
				c-1.117,0.069-2.324,0.413-2.961,0.63c-0.236,0.082-0.411-0.102-0.493-0.339c-0.12-0.353-0.334-1.323-0.251-2.114
				c0.081-0.773,0.342-1.58,0.54-2.039c0.092-0.215,0.271-0.375,0.492-0.455c0.768-0.271,1.682-0.239,3.019-0.127
				c1.609,0.138,2.294,0.695,3.038,1.565l0.85,1.011c0.276,0.321,0.651,0.545,1.067,0.631l1.021,0.213c0,0-0.112,0.181-0.209,0.371
				C437.099,245.547,437.04,245.713,437.04,245.713z"/>
		</g>
	</g>
</g>
<g>
	<g>
		<g>
			<g>
				<rect x="366.504" y="268.316" fill="#292D2E" width="41.92" height="2.627"/>
			</g>
		</g>
	</g>
	<g>
		<g>
			<g>
				<rect x="366.911" y="265.709" fill="#D6D5D5" width="37.972" height="2.105"/>
			</g>
		</g>
	</g>
	<g>
		<g>
			<g>
				<rect x="364.938" y="267.313" fill="#545453" width="41.919" height="1.006"/>
			</g>
		</g>
	</g>
	<g>
		<g>
			<g>
				<rect x="367.689" y="266.516" fill="#A4A3AD" width="36.411" height="0.221"/>
			</g>
		</g>
	</g>
	<g>
		<g>
			<g>
				<rect x="367.689" y="266.986" fill="#A4A3AD" width="36.411" height="0.218"/>
			</g>
		</g>
	</g>
	<g>
		<g>
			<g>
				<rect x="367.689" y="266.025" fill="#A4A3AD" width="36.411" height="0.217"/>
			</g>
		</g>
	</g>
</g>
<g>
	<g>
		<g>
			<g>
				<g>
					<rect x="555.738" y="266.152" fill="#F2F2F2" width="17.313" height="4.296"/>
				</g>
			</g>
		</g>
		<g>
			<g>
				<g>
					<rect x="567.587" y="266.152" fill="#A7A8AB" width="5.464" height="4.296"/>
				</g>
			</g>
		</g>
		<g>
			<g>
				<g>
					<rect x="554.669" y="266.152" fill="#A7A8AB" width="17.313" height="0.492"/>
				</g>
			</g>
		</g>
		<g>
			<g>
				<g>
					<rect x="554.669" y="269.955" fill="#A7A8AB" width="17.313" height="0.493"/>
				</g>
			</g>
		</g>
		<g>
			<g>
				<g>
					<rect x="568.057" y="266.152" fill="#383938" width="22.592" height="4.296"/>
				</g>
			</g>
		</g>
		<g>
			<g>
				<g>
					<rect x="570.484" y="267.152" fill="#A7A8AB" width="12.086" height="2.298"/>
				</g>
			</g>
		</g>
		<g>
			<g>
				<g>
					<rect x="571.136" y="267.275" fill="#E6E6E5" width="10.784" height="2.05"/>
				</g>
			</g>
		</g>
		<g>
			<g>
				<g>
					<path fill="#A7A8AB" d="M586.083,268.305c0,0.635,0.632,1.15,1.412,1.15s1.411-0.516,1.411-1.15c0-0.639-0.631-1.15-1.411-1.15
						S586.083,267.666,586.083,268.305z"/>
				</g>
			</g>
		</g>
		<g>
			<g>
				<g>
					<rect x="556.769" y="266.934" fill="#A7A8AB" width="9.873" height="0.438"/>
				</g>
			</g>
		</g>
		<g>
			<g>
				<g>
					<rect x="556.769" y="268.607" fill="#A7A8AB" width="9.873" height="0.435"/>
				</g>
			</g>
		</g>
		<g>
			<g>
				<g>
					<rect x="556.769" y="269.232" fill="#A7A8AB" width="9.873" height="0.435"/>
				</g>
			</g>
		</g>
		<g>
			<g>
				<g>
					<rect x="559.863" y="267.896" fill="#A7A8AB" width="6.15" height="0.434"/>
				</g>
			</g>
		</g>
		<g>
			<g>
				<g>
					<rect x="556.769" y="267.896" fill="#A7A8AB" width="2.603" height="0.434"/>
				</g>
			</g>
		</g>
	</g>
	<g>
		<g>
			<g>
				<g>
					<rect x="552.479" y="261.96" fill="#F2F2F2" width="17.313" height="4.295"/>
				</g>
			</g>
		</g>
		<g>
			<g>
				<g>
					<rect x="564.327" y="261.96" fill="#A7A8AB" width="5.463" height="4.295"/>
				</g>
			</g>
		</g>
		<g>
			<g>
				<g>
					<rect x="551.409" y="261.96" fill="#A7A8AB" width="17.313" height="0.493"/>
				</g>
			</g>
		</g>
		<g>
			<g>
				<g>
					<rect x="551.409" y="265.764" fill="#A7A8AB" width="17.313" height="0.491"/>
				</g>
			</g>
		</g>
		<g>
			<g>
				<g>
					<rect x="564.797" y="261.96" fill="#5A5A5D" width="22.592" height="4.295"/>
				</g>
			</g>
		</g>
		<g>
			<g>
				<g>
					<rect x="567.226" y="262.958" fill="#A7A8AB" width="12.087" height="2.3"/>
				</g>
			</g>
		</g>
		<g>
			<g>
				<g>
					<rect x="567.877" y="263.083" fill="#E6E6E5" width="10.784" height="2.05"/>
				</g>
			</g>
		</g>
		<g>
			<g>
				<g>
					<ellipse fill="#A7A8AB" cx="584.235" cy="264.109" rx="1.411" ry="1.15"/>
				</g>
			</g>
		</g>
		<g>
			<g>
				<g>
					<rect x="553.51" y="262.741" fill="#A7A8AB" width="9.872" height="0.434"/>
				</g>
			</g>
		</g>
		<g>
			<g>
				<g>
					<rect x="553.51" y="264.415" fill="#A7A8AB" width="9.872" height="0.435"/>
				</g>
			</g>
		</g>
		<g>
			<g>
				<g>
					<rect x="553.51" y="265.041" fill="#A7A8AB" width="9.872" height="0.434"/>
				</g>
			</g>
		</g>
		<g>
			<g>
				<g>
					<rect x="556.604" y="263.703" fill="#A7A8AB" width="6.151" height="0.434"/>
				</g>
			</g>
		</g>
		<g>
			<g>
				<g>
					<rect x="553.51" y="263.703" fill="#A7A8AB" width="2.601" height="0.434"/>
				</g>
			</g>
		</g>
	</g>
	<g>
		<g>
			<g>
				<g>
					<rect x="555.738" y="257.768" fill="#F2F2F2" width="17.313" height="4.295"/>
				</g>
			</g>
		</g>
		<g>
			<g>
				<g>
					<rect x="567.587" y="257.768" fill="#A7A8AB" width="5.464" height="4.295"/>
				</g>
			</g>
		</g>
		<g>
			<g>
				<g>
					<rect x="554.669" y="257.768" fill="#A7A8AB" width="17.313" height="0.492"/>
				</g>
			</g>
		</g>
		<g>
			<g>
				<g>
					<rect x="554.669" y="261.566" fill="#A7A8AB" width="17.313" height="0.496"/>
				</g>
			</g>
		</g>
		<g>
			<g>
				<g>
					<rect x="568.057" y="257.768" fill="#5B4B43" width="22.592" height="4.295"/>
				</g>
			</g>
		</g>
		<g>
			<g>
				<g>
					<rect x="570.484" y="258.766" fill="#A7A8AB" width="12.086" height="2.297"/>
				</g>
			</g>
		</g>
		<g>
			<g>
				<g>
					<rect x="571.136" y="258.889" fill="#E6E6E5" width="10.784" height="2.051"/>
				</g>
			</g>
		</g>
		<g>
			<g>
				<g>
					<ellipse fill="#A7A8AB" cx="587.495" cy="259.916" rx="1.412" ry="1.15"/>
				</g>
			</g>
		</g>
		<g>
			<g>
				<g>
					<rect x="556.769" y="258.549" fill="#A7A8AB" width="9.873" height="0.434"/>
				</g>
			</g>
		</g>
		<g>
			<g>
				<g>
					<rect x="556.769" y="260.221" fill="#A7A8AB" width="9.873" height="0.434"/>
				</g>
			</g>
		</g>
		<g>
			<g>
				<g>
					<rect x="556.769" y="260.846" fill="#A7A8AB" width="9.873" height="0.437"/>
				</g>
			</g>
		</g>
		<g>
			<g>
				<g>
					<rect x="559.863" y="259.508" fill="#A7A8AB" width="6.15" height="0.434"/>
				</g>
			</g>
		</g>
		<g>
			<g>
				<g>
					<rect x="556.769" y="259.508" fill="#A7A8AB" width="2.603" height="0.434"/>
				</g>
			</g>
		</g>
	</g>
</g>
<g>
	<g>
		<g>
			<g>
				<polygon fill="#F8FCFF" points="592.143,270.333 593.1,256.114 584.052,256.114 585.009,270.333 				"/>
			</g>
		</g>
	</g>
	<g>
		<g>
			<g>
				<polygon fill="#BAE4F0" points="585.82,269.466 584.98,256.98 592.171,256.98 591.331,269.466 				"/>
			</g>
		</g>
	</g>
	<g>
		<g>
			<g>
				<polygon fill="#7DD0E7" points="585.256,261.08 585.82,269.466 591.331,269.466 591.895,261.08 				"/>
			</g>
		</g>
	</g>
	<g opacity="0.5">
		<g>
			<g>
				<path fill="#FFFFFF" d="M586.402,267.659h1.503l-0.89-8.931c-0.182-1.595-1.673-1.682-1.438,0.137L586.402,267.659z"/>
			</g>
		</g>
	</g>
</g>
<g>
	<polyline fill="#ECAF1F" points="423.145,267.521 423.638,268.424 409.507,268.424 410.001,267.521 	"/>
	<polygon opacity="0.55" fill="#ECAF1F" enable-background="new    " points="410.001,267.521 409.508,268.424 414.963,268.424 
		415.456,267.521 	"/>
</g>
<g>
	<g>
		<g>
			<g>
				<g>
					<g>
						<rect x="375.77" y="274.003" fill="#734024" width="5.004" height="98.451"/>
					</g>
				</g>
			</g>
		</g>
		<g>
			<g>
				<g>
					<g>
						<rect x="581.752" y="274.003" fill="#734024" width="5.006" height="98.451"/>
					</g>
				</g>
			</g>
		</g>
	</g>
	<g>
		<g>
			<g>
				<rect x="365.613" y="271.135" fill="#734024" width="231.3" height="4.344"/>
			</g>
		</g>
	</g>
	<g>
		<g>
			<g>
				<rect x="363.188" y="270.268" fill="#67351D" width="236.151" height="1.946"/>
			</g>
		</g>
	</g>
</g>
<g>
	<g>
		<g>
			<g>
				<rect x="404.216" y="269.264" fill="#545453" width="49.92" height="1.004"/>
			</g>
		</g>
	</g>
	<g>
		<g>
			<g>
				<path fill="#D6D5D5" d="M452.027,267.968c0,0-19.733-1.169-22.635,0.867c-3.979-1.813-23.069-0.867-23.069-0.867v1.296h45.704
					V267.968z"/>
			</g>
		</g>
	</g>
	<g>
		<g>
			<g>
				<path fill="#A4A3AD" d="M452.027,268.835c-1.895-0.149-3.788-0.272-5.684-0.375c-1.896-0.106-3.791-0.199-5.688-0.25
					s-3.795-0.065-5.689,0c-0.945,0.036-1.893,0.095-2.83,0.209c-0.47,0.054-0.936,0.131-1.394,0.231
					c-0.45,0.115-0.918,0.232-1.288,0.482l-0.05,0.036l-0.058-0.026c-0.433-0.181-0.896-0.304-1.362-0.396
					c-0.471-0.092-0.946-0.158-1.423-0.217c-0.956-0.107-1.92-0.166-2.884-0.207c-1.927-0.076-3.856-0.069-5.786-0.033
					c-1.93,0.041-3.858,0.115-5.787,0.215c-1.929,0.086-3.855,0.193-5.782,0.331c3.847-0.347,7.704-0.589,11.565-0.688
					c1.933-0.051,3.865-0.071,5.799-0.006c0.966,0.033,1.934,0.088,2.896,0.189c0.482,0.056,0.963,0.12,1.44,0.212
					c0.479,0.094,0.955,0.209,1.414,0.405l-0.107,0.011c0.426-0.281,0.902-0.392,1.366-0.508c0.469-0.101,0.941-0.177,1.415-0.228
					c0.947-0.107,1.898-0.162,2.85-0.191c1.899-0.057,3.801-0.028,5.699,0.035C444.457,268.191,448.248,268.463,452.027,268.835z"/>
			</g>
		</g>
	</g>
	<g>
		<g>
			<g>
				<path fill="#A4A3AD" d="M452.027,268.835c-1.89-0.051-3.778-0.089-5.666-0.117c-1.89-0.036-3.777-0.065-5.665-0.079
					c-1.891-0.01-3.778-0.008-5.666,0.036c-0.942,0.021-1.888,0.054-2.827,0.109c-0.47,0.028-0.94,0.062-1.407,0.114
					c-0.463,0.054-0.938,0.106-1.366,0.248l-0.028,0.01l-0.029-0.006c-0.456-0.086-0.937-0.119-1.409-0.149
					c-0.476-0.033-0.953-0.051-1.431-0.067c-0.954-0.031-1.91-0.047-2.864-0.058c-1.911-0.019-3.824-0.01-5.735,0.005l-11.472,0.166
					l5.734-0.195l5.734-0.115c1.912-0.027,3.825-0.047,5.738-0.041c0.956,0.003,1.913,0.014,2.87,0.039
					c0.479,0.013,0.957,0.026,1.437,0.059c0.479,0.029,0.957,0.055,1.442,0.146l-0.061,0.006c0.474-0.152,0.944-0.198,1.418-0.25
					c0.472-0.051,0.944-0.082,1.417-0.106c0.944-0.051,1.892-0.077,2.836-0.095c1.891-0.028,3.779-0.021,5.67,0.003
					c1.889,0.024,3.777,0.063,5.666,0.116C448.252,268.677,450.139,268.748,452.027,268.835z"/>
			</g>
		</g>
	</g>
</g>
<g>
	<g>
		<g>
			<g>
				<rect x="475.746" y="269.264" fill="#545453" width="49.919" height="1.004"/>
			</g>
		</g>
	</g>
	<g>
		<g>
			<g>
				<path fill="#D6D5D5" d="M523.557,267.968c0,0-19.731-1.169-22.634,0.867c-3.979-1.813-23.069-0.867-23.069-0.867v1.296h45.703
					V267.968z"/>
			</g>
		</g>
	</g>
	<g>
		<g>
			<g>
				<path fill="#A4A3AD" d="M523.557,268.835c-1.893-0.149-3.787-0.272-5.682-0.375c-1.895-0.106-3.791-0.199-5.688-0.25
					c-1.897-0.051-3.795-0.065-5.689,0c-0.946,0.036-1.895,0.095-2.831,0.209c-0.468,0.054-0.936,0.131-1.394,0.231
					c-0.449,0.115-0.917,0.232-1.287,0.482l-0.051,0.036l-0.058-0.026c-0.431-0.181-0.895-0.304-1.362-0.396
					c-0.47-0.092-0.946-0.158-1.424-0.217c-0.956-0.107-1.918-0.166-2.881-0.207c-1.927-0.076-3.857-0.069-5.787-0.033
					c-1.931,0.041-3.858,0.115-5.787,0.215c-1.93,0.086-3.856,0.193-5.782,0.331c3.848-0.347,7.702-0.589,11.565-0.688
					c1.931-0.051,3.864-0.071,5.798-0.006c0.966,0.033,1.934,0.088,2.896,0.189c0.48,0.056,0.962,0.12,1.439,0.212
					c0.479,0.094,0.955,0.209,1.413,0.405l-0.105,0.011c0.425-0.281,0.9-0.392,1.364-0.508c0.471-0.101,0.942-0.177,1.417-0.228
					c0.946-0.107,1.898-0.162,2.849-0.191c1.9-0.057,3.801-0.028,5.699,0.035C515.988,268.191,519.777,268.463,523.557,268.835z"/>
			</g>
		</g>
	</g>
	<g>
		<g>
			<g>
				<path fill="#A4A3AD" d="M523.557,268.835c-1.889-0.051-3.775-0.089-5.665-0.117c-1.889-0.036-3.777-0.065-5.666-0.079
					c-1.889-0.01-3.776-0.008-5.663,0.036c-0.944,0.021-1.889,0.054-2.828,0.109c-0.472,0.028-0.94,0.062-1.407,0.114
					c-0.463,0.054-0.938,0.106-1.366,0.248l-0.029,0.01l-0.028-0.006c-0.456-0.086-0.937-0.119-1.41-0.149
					c-0.476-0.033-0.952-0.051-1.429-0.067c-0.955-0.031-1.91-0.047-2.866-0.058c-1.911-0.019-3.822-0.01-5.735,0.005l-11.472,0.166
					l5.732-0.195l5.737-0.115c1.912-0.027,3.825-0.047,5.737-0.041c0.957,0.003,1.914,0.014,2.871,0.039
					c0.479,0.013,0.957,0.026,1.436,0.059c0.479,0.029,0.957,0.055,1.441,0.146l-0.06,0.006c0.475-0.152,0.944-0.198,1.418-0.25
					c0.473-0.051,0.944-0.082,1.418-0.106c0.945-0.051,1.891-0.077,2.835-0.095c1.891-0.028,3.78-0.021,5.669,0.003
					c1.891,0.024,3.779,0.063,5.669,0.116C519.782,268.677,521.67,268.748,523.557,268.835z"/>
			</g>
		</g>
	</g>
</g>
<polygon fill="#FFE0BD" points="549.69,354.57 550.521,359.555 554.322,359.555 555.957,359.273 554.76,351.529 "/>
<path id="XMLID_514_" fill="#734024" d="M555.278,353.145c-0.364,0.166-0.749,0.313-1.147,0.454
	c-2.098,0.707-4.924,1.091-4.924,1.091c-4.545-7.454-16.332-43.764-16.332-43.764c-1.085-4.588,5.803,1.286,8.67,1.11
	c0.993-0.058,1.938,0.084,2.645,0.385c2.74,1.161,6.762,8.917,6.762,8.917s1.224,2.677,2.503,8.214
	C554.731,335.082,555.278,353.145,555.278,353.145z"/>
<path id="XMLID_504_" opacity="0.3" fill="#3F291E" d="M555.278,353.145c-0.364,0.166-0.749,0.313-1.147,0.454
	c-0.287-2.21-0.713-5.733-1.342-11.349c-1.406-12.586-9.384-26.996-11.244-30.214c0.993-0.058,1.938,0.084,2.645,0.385
	c2.74,1.161,6.762,8.917,6.762,8.917s1.224,2.677,2.503,8.214C554.731,335.082,555.278,353.145,555.278,353.145z"/>
<path id="XMLID_421_" fill="#181B46" d="M550.271,358.827c0,0,1.625,0.033,2.904-0.444c1.534-0.573,2.445-1.551,2.445-1.551
	s4.033,2.462,4.028,6.885c0,0.232-0.153,0.438-0.37,0.521c0,0-9.67,4.295-12.998,5.472c-2.039,0.719-5.337,1.38-5.337,1.38
	c-0.242,0.054-0.482-0.033-0.567-0.255c-0.175-0.449-0.262-1.237,0.725-1.993c1.499-1.149,3.14-2.09,4.275-3.042
	c1.138-0.951,2.301-3.577,3.222-4.325C549.77,360.524,550.271,358.827,550.271,358.827z"/>
<g>
	<g>
		<g>
			<g>
				<g>
					<g>
						<g>
							<path fill="#734024" d="M570.308,380.813l1.411-75.5h-5.021l1.412,75.5c0.017,0.769,0.508,1.389,1.099,1.389
								S570.291,381.58,570.308,380.813z"/>
						</g>
					</g>
				</g>
				<g>
					<g>
						<g>
							<path fill="#734024" d="M524.148,371.982l29.171-69.656l-4.669-1.854l-26.544,70.697c-0.268,0.717-0.039,1.475,0.51,1.694
								C523.165,373.082,523.852,372.688,524.148,371.982z"/>
						</g>
					</g>
				</g>
				<g>
					<g>
						<g>
							<path fill="#734024" d="M614.266,371.982l-29.17-69.656l4.668-1.854l26.545,70.697c0.27,0.717,0.04,1.475-0.509,1.694
								C615.25,373.082,614.563,372.688,614.266,371.982z"/>
						</g>
					</g>
				</g>
			</g>
		</g>
	</g>
</g>
<g>
	<path id="XMLID_401_" fill="#FFFFFF" d="M533.829,267.008h-46.154l-9.137-28.727c-0.461-1.446,0.62-2.922,2.137-2.922h41.448
		c0.976,0,1.841,0.633,2.137,1.562L533.829,267.008z"/>
	<path id="XMLID_402_" fill="#E0EAF7" d="M533.083,267.008h-44.192l-9.05-28.195c-0.456-1.418,0.613-2.867,2.118-2.867h39.527
		c0.968,0,1.823,0.619,2.117,1.533L533.083,267.008z"/>
	<path id="XMLID_550_" fill="#C2DFF0" d="M505.358,241.273h-20.135c-0.3,0-0.543-0.244-0.543-0.543l0,0
		c0-0.301,0.243-0.543,0.543-0.543h20.135c0.3,0,0.543,0.242,0.543,0.543l0,0C505.901,241.029,505.658,241.273,505.358,241.273z"/>
	<path id="XMLID_549_" fill="#C2DFF0" d="M508.477,243.786h-22.45c-0.302,0-0.544-0.245-0.544-0.544l0,0
		c0-0.301,0.242-0.543,0.544-0.543h22.45c0.301,0,0.542,0.242,0.542,0.543l0,0C509.019,243.541,508.776,243.786,508.477,243.786z"/>
	<path id="XMLID_547_" fill="#C2DFF0" d="M506.396,246.294h-19.555c-0.3,0-0.543-0.242-0.543-0.54l0,0
		c0-0.302,0.243-0.544,0.543-0.544h19.555c0.301,0,0.543,0.242,0.543,0.544l0,0C506.938,246.052,506.696,246.294,506.396,246.294z"
		/>
	<path id="XMLID_546_" fill="#C2DFF0" d="M503.137,248.807h-15.498c-0.3,0-0.543-0.242-0.543-0.545l0,0
		c0-0.299,0.243-0.543,0.543-0.543h15.498c0.3,0,0.543,0.244,0.543,0.543l0,0C503.68,248.563,503.438,248.807,503.137,248.807z"/>
	<path id="XMLID_545_" fill="#C2DFF0" d="M510.911,251.316h-22.452c-0.3,0-0.543-0.242-0.543-0.543l0,0
		c0-0.299,0.243-0.545,0.543-0.545h22.452c0.3,0,0.542,0.246,0.542,0.545l0,0C511.453,251.074,511.211,251.316,510.911,251.316z"/>
	<path id="XMLID_544_" fill="#C2DFF0" d="M508.817,253.827h-19.555c-0.3,0-0.544-0.242-0.544-0.543l0,0
		c0-0.302,0.244-0.544,0.544-0.544h19.555c0.3,0,0.543,0.242,0.543,0.544l0,0C509.36,253.585,509.117,253.827,508.817,253.827z"/>
	<path id="XMLID_542_" fill="#C2DFF0" d="M513.316,258.848h-22.45c-0.3,0-0.544-0.242-0.544-0.541l0,0
		c0-0.302,0.244-0.543,0.544-0.543h22.45c0.3,0,0.543,0.241,0.543,0.543l0,0C513.859,258.604,513.616,258.848,513.316,258.848z"/>
	<path id="XMLID_539_" fill="#C2DFF0" d="M514.134,261.357h-22.451c-0.3,0-0.542-0.241-0.542-0.541l0,0
		c0-0.301,0.242-0.543,0.542-0.543h22.451c0.3,0,0.542,0.242,0.542,0.543l0,0C514.676,261.116,514.434,261.357,514.134,261.357z"/>
	<path id="XMLID_405_" fill="#C2DFF0" d="M526.071,261.357h-7.252c-0.678,0-1.273-0.437-1.479-1.082l-6.046-19.133
		c-0.314-1.002,0.431-2.018,1.479-2.018h7.252c0.676,0,1.273,0.438,1.478,1.082l6.045,19.134
		C527.864,260.343,527.118,261.357,526.071,261.357z"/>
	<path id="XMLID_403_" fill="#FFFFFF" d="M537.697,269.098h-50.192c-0.819,0-1.482-0.662-1.482-1.481l0,0
		c0-0.821,0.663-1.485,1.482-1.485h50.192c0.819,0,1.483,0.664,1.483,1.485l0,0C539.182,268.436,538.518,269.098,537.697,269.098z"
		/>
	<g id="XMLID_404_">
		<path id="XMLID_419_" fill="#181B46" d="M552.188,229.408c-0.438,0-0.866-0.227-1.097-0.633l-1.669-2.938
			c-0.171-0.298-0.211-0.645-0.115-0.973c0.097-0.329,0.316-0.6,0.62-0.758l4.647-2.455c0.602-0.319,1.36-0.092,1.688,0.509
			l1.586,2.913c0.16,0.294,0.196,0.635,0.103,0.957c-0.096,0.32-0.311,0.587-0.605,0.748l-4.563,2.478
			C552.595,229.359,552.391,229.408,552.188,229.408z M555.159,222.087c-0.107,0-0.214,0.024-0.313,0.079l-4.647,2.453
			c-0.163,0.086-0.281,0.23-0.333,0.41c-0.051,0.177-0.03,0.361,0.062,0.522l0,0l1.67,2.938c0.182,0.316,0.588,0.434,0.911,0.26
			l4.563-2.48c0.157-0.086,0.273-0.229,0.325-0.402s0.031-0.355-0.056-0.514l-1.586-2.914
			C555.633,222.216,555.399,222.087,555.159,222.087z"/>
	</g>
	<path id="XMLID_538_" fill="#FFE0BD" d="M533.142,259.77c-0.324,0.418-0.586,0.684-0.586,0.684s-2.433-1.844-3.109-2.016
		c-0.673-0.17-2.121,0.363-2.943,0.41c-0.823,0.053-0.893-0.441-0.893-0.441s-3.141,1.313-3.646,1.432
		c-0.51,0.123-0.847-0.046-0.532-0.845c0.068-0.173,0.278-0.451,0.579-0.788l0.005-0.005c1.072-1.214,3.279-3.146,4.073-3.529
		c1.014-0.479,2.395-1.183,3.5-0.771c1.112,0.41,4.71,3.109,4.71,3.109C534.403,257.938,533.686,259.066,533.142,259.77z"/>
	<path id="XMLID_533_" fill="#FCD09E" d="M533.888,257.173l-0.746,2.597c-0.324,0.418-0.586,0.684-0.586,0.684
		s-2.433-1.844-3.109-2.016c-0.673-0.17-2.121,0.363-2.943,0.41c-0.823,0.053-0.893-0.441-0.893-0.441s-3.141,1.313-3.646,1.432
		c-0.51,0.123-0.847-0.046-0.532-0.845c0.068-0.173,0.278-0.451,0.579-0.788c-0.267,0.367-0.562,0.748-0.387,1.217
		c0.212,0.572,3.583-1.035,6.018-2.503c0.038-0.022,0.233-0.12,0.303-0.005c0.044,0.076-0.098,0.23-0.135,0.271
		c-0.404,0.436-2.446,0.588-2.032,1.238c0.581,0.916,2.677-0.764,3.822-0.389c1.147,0.378,2.584,1.427,2.584,1.427
		S532.839,257.51,533.888,257.173z"/>
	<path id="XMLID_406_" fill="#3B7BBF" d="M532.186,260.455c0,0,11.938,10.439,20.87,11.501s23.995-15.883,23.995-15.883
		s-0.948-9.028-6.518-7.968c-5.57,1.062-13.036,14.484-16.271,15.112c-3.234,0.628-20.056-6.502-20.056-6.502
		s-0.479,0.336-1.04,1.283C532.56,259.02,532.186,260.455,532.186,260.455z"/>
	<path id="XMLID_407_" fill="#F9F7F0" d="M572.802,208.997c-3.267-3.739-8.095-4.142-11.823-3.729
		c-4.893,0.541-9.146,3.842-10.56,8.561c-0.611,2.037-0.729,4.422,0.223,7.048c3.041,8.401,6.229,13.76,9.196,15.353
		c1.135,0.609,3.301,0.205,5.617-0.609c0.304-0.107,0.642,0.021,0.793,0.304l0.979,1.827l8.594-1.857c0,0-1.104-2.394-1.692-4.906
		C575.377,229.406,578.779,215.839,572.802,208.997z"/>
	<path id="XMLID_408_" fill="#0A1B33" d="M555.435,220.982c1.068-0.084,2.083,0.479,2.497,1.467
		c0.707,1.682,1.799,4.035,2.655,4.798c0.177,0.158,0.563,0.212,0.944,0.011c0.377-0.199,0.453-0.521,0.432-0.732
		c-0.074-0.728-0.612-2.301-0.993-3.35c-0.487-1.343,0.091-2.763,1.693-3.121c0.29-0.064,1.024-0.025,1.396,0.086
		c2.54,0.771,0.791,4.754,0.738,6.836c-0.035,1.469,1.72,4.866,2.5,5.174c2.552,1,6.42,0.097,8.472-2.439
		c2.055-2.533,2.5-11.008,1.377-16.077c-1.122-5.069-5.178-7.932-6.518-8.257c-0.662-0.16-1.209-0.162-1.594-0.123
		c-0.408,0.042-0.811-0.098-1.12-0.365c-1.35-1.177-5.386-3.861-11.771-1.104c-7.967,3.44-9.307,10.792-9.16,14.122
		c0.093,2.167,1.794,2.006,2.973,1.629c0.649-0.207,1.354-0.037,1.872,0.404C552.498,220.51,553.648,221.125,555.435,220.982z"/>
	<path id="XMLID_409_" fill="#2EA3DC" d="M566.961,239.126c0,0-0.74-0.824-0.46-1.329c0.349-0.625,4.12-3.607,8.522-3.449
		c0.684,0.021,1.521,0.021,2.341,1.81c0.821,1.786,1.015,2.97,1.015,2.97L566.961,239.126L566.961,239.126z"/>
	<path id="XMLID_509_" fill="#2EA3DC" d="M583.715,311.319c-0.267,0.063-0.557,0.127-0.856,0.186
		c-3.737,0.694-9.814,0.776-9.814,0.776c-11.981-0.215-18.038-11.377-19.985-14.709c-0.683-1.17-0.955-1.952-0.955-1.952
		c0.685-0.365,8.822-4.752,8.389-19.739c-0.09-3.105-0.046-10.057-1.593-12.757c-0.853-1.485-3.372-4.491-4.954-7.661
		c-1.298-2.605-1.971-5.322-0.551-7.396c3.522-5.176,9.078-7.926,9.078-7.926s10.197-4.086,18.884-3.158
		c5.51,0.58,10.417,3.176,11.726,10.11C596.458,264.954,583.715,311.319,583.715,311.319z"/>
	<path id="XMLID_503_" opacity="0.18" fill="#2EA3DC" enable-background="new    " d="M563.821,271.959
		c1.48,14.742-8.557,24.025-10.765,25.613c-0.683-1.17-0.955-1.952-0.955-1.952c0.685-0.365,8.334-7.009,8.389-19.739
		c0.014-3.105-0.046-10.057-1.594-12.757c-0.852-1.485-3.371-4.491-4.953-7.661l0.672-0.26l4.091-0.68l2.073,1.691
		C560.779,256.216,562.862,262.407,563.821,271.959z"/>
	<path id="XMLID_484_" opacity="0.45" fill="#00B1B5" enable-background="new    " d="M583.715,311.319
		c-0.267,0.063-0.557,0.127-0.856,0.186c0.765-4.026,5.604-29.315,7.181-38.487c3.112-18.103-0.126-27.273-1.952-30.562
		c-1.475-2.653-4.315-4.06-6.73-5.474c5.51,0.578,10.417,3.175,11.726,10.109C596.458,264.954,583.715,311.319,583.715,311.319z"/>
	<path id="XMLID_412_" fill="#FFE0BD" d="M524.929,365.348c0,0-1.268,0.55-2.851,0.55c-1.76,0-2.271-0.659-2.271-0.659v-4.012
		l5.797-0.745L524.929,365.348z"/>
	<path id="XMLID_513_" fill="#734024" d="M570.464,309.242c-0.035,2.606-0.727,6.768-4.637,7.94
		c-5.831,1.748-10.138,0.756-16.898-0.41c-5.664-0.974-20.579-4.184-23.319-5.228c-0.357-0.133-0.707,0.169-0.638,0.538
		c1.294,6.321,2.327,9.055,3.166,18.54c0.704,7.967-2.355,30.525-2.355,30.525s-0.932,0.285-1.932,0.445
		c-0.378,0.058-0.762,0.099-1.11,0.099c-1.47,0-3.237-0.273-3.237-0.273s-6.048-33.218-6.866-46.679
		c-0.812-13.459,0.469-14.571,6.587-17.426c6.118-2.853,33.468-1.793,33.468-1.793l0.007,0.008c0.076,0.236,1.615,4.438,6.152,8.242
		C561.549,306.047,565.317,308.17,570.464,309.242z"/>
	<g>
		<path fill="#33315C" d="M553.832,297.848c-0.751-1.293-1.102-2.213-1.136-2.316l-0.006-0.008c0,0-0.317-0.014-0.865-0.03
			C552.382,296.242,553.04,297.039,553.832,297.848z"/>
		<path opacity="0.3" fill="#3F291E" d="M566.693,308.193c-0.549,1.975-1.732,3.897-4.193,4.639
			c-5.833,1.748-10.139,0.756-16.9-0.413c-5.664-0.973-20.578-4.183-23.319-5.224c-0.355-0.133-0.705,0.168-0.638,0.538
			c1.294,6.32,2.327,9.052,3.167,18.536c0.55,6.206,0.314,26.436,0.185,35.089c0.458-0.112,0.788-0.209,0.788-0.209
			s3.061-22.56,2.355-30.525c-0.839-9.485-1.872-12.219-3.166-18.54c-0.069-0.369,0.279-0.671,0.638-0.538
			c2.74,1.044,17.655,4.254,23.319,5.228c6.763,1.166,11.067,2.158,16.898,0.41c3.91-1.174,4.602-5.334,4.637-7.94
			C569.111,308.961,567.861,308.604,566.693,308.193z"/>
	</g>
	<path id="XMLID_420_" fill="#181B46" d="M519.709,364.679c0,0,1.512,0.599,2.877,0.599c1.638,0,2.832-0.599,2.832-0.599
		s2.92,3.716,1.369,7.857c-0.081,0.217-0.297,0.356-0.528,0.356h-19.572c-0.238,0-0.44-0.187-0.443-0.424
		c-0.006-0.481,0.188-1.251,1.376-1.615c1.807-0.554,3.671-0.859,5.068-1.354c1.398-0.495,3.406-2.549,4.53-2.927
		C518.646,366.09,519.709,364.679,519.709,364.679z"/>
	<path id="XMLID_536_" fill="#FFE0BD" d="M510.829,266.574c0,0-1.741-0.457-2.645-0.641c-0.36-0.074-0.694-0.115-0.967-0.144
		c-0.381-0.033-0.77-0.017-1.147,0.038l-9.36,1.294c-0.27,0.038-0.519-0.156-0.557-0.427c-0.051-0.367,0.087-0.729,0.362-0.967
		l0.915-0.789l2.733-2.354c1.354-1.164,2.426-1.373,4.216-1.463c0.335-0.019,1.677,0.345,1.929,0.392
		c1.834,0.336,2.252,0.549,3.476,0.799c0.481,0.104,0.809,0.146,1.021,0.162c0.331,0.025,0.406-0.015,0.406-0.015
		C511.865,264.803,510.829,266.574,510.829,266.574z"/>
	<path id="XMLID_534_" fill="#F3F3F3" d="M525.116,267.503c-0.016,0.019-0.033,0.024-0.058,0.017
		c-0.238-0.101-1.701-0.703-2.498-0.982c-0.294-0.104-0.569-0.182-0.811-0.24c-0.346-0.089-0.92-0.152-1.275-0.152h-9.394
		c-0.29,0-0.548-0.229-0.542-0.521c0.007-0.362,0.191-0.693,0.492-0.889l1.015-0.655c-0.96,0.729-1.114,1.278-0.635,1.338
		c0.386,0.046,1.295-0.058,3.601-0.696c0.054-0.016,0.073,0.065,0.027,0.094c-0.531,0.326-0.333,1.009,0.32,0.976
		c0.388-0.019,2.032-0.122,2.414-0.144c1.473-0.086,3.617-0.225,4.031-0.147c0.831,0.153,1.469,0.405,2.063,0.715
		c0.403,0.209,0.787-0.25,0.935-0.682c0.209-0.609,0.515-1.438,0.829-2.06c0.324,0.068,0.405,0.041,0.405,0.041
		C526.337,265.732,525.283,267.273,525.116,267.503z"/>
	<path id="XMLID_423_" fill="#2EA3DC" d="M562.094,244.96c-1.237-0.758-4.981-2.838-9.812,4.692
		c-4.827,7.531-8.69,13.179-10.38,14.193c-1.689,1.014-5.844,0.288-7.34,0.288s-23.406-1.71-23.406-1.71s-1.053,2.264-1.231,4.221
		c0,0,20.075,5.263,32.521,5.312c12.443,0.049,21.907-18.782,22.342-21.051S565.053,246.768,562.094,244.96z"/>
	<g id="XMLID_424_">
		<path id="XMLID_417_" fill="#181B46" d="M550.082,227.423c-0.104,0-0.206-0.056-0.258-0.155c-0.072-0.143-0.018-0.315,0.125-0.391
			l10.796-5.533c1.223-0.627,3.724-1.908,5.58,0.816c0.089,0.131,0.056,0.313-0.077,0.4c-0.131,0.09-0.311,0.059-0.402-0.076
			c-1.446-2.123-3.174-1.479-4.813-0.635l-10.816,5.543C550.173,227.413,550.127,227.423,550.082,227.423z"/>
	</g>
	<path id="XMLID_482_" fill="#E6C49F" d="M560.925,222.033l1.303,4.165c0,0,1.016,0.979,1.993-0.146
		c0.979-1.125,1.829-5.032,0.036-5.686C562.464,219.717,561.378,220.639,560.925,222.033z"/>
</g>
<g>
	<g>
		<g>
			<path fill="#E9F6F5" d="M609.994,282.337c0-21.026-0.495-35.846-13.816-38.076c-18.124-3.032-32.3,12.66-29.397,42.726
				c1.662,17.229-5.402,23.142-11.418,26.505c-3.892,2.177-11.422,1.71-11.422,1.71s-3.486-0.413-5.828-0.633
				c1.448,0.669,32.479,15.96,54.622,4.659C612.359,309.214,609.994,294.709,609.994,282.337z"/>
		</g>
	</g>
</g>
<g>
	<g>
		<g>
			<path fill="#CFDFE0" d="M609.994,282.337c0-21.026-0.495-35.846-13.816-38.076c-0.64-0.106-1.273-0.188-1.903-0.247
				c-14.521,1.438-24.035,16.729-21.501,42.98c1.66,17.229-5.402,23.141-11.419,26.507c-3.891,2.177-11.422,1.71-11.422,1.71
				s-0.176-0.057-0.5-0.153c-2.917,0.302-5.492,0.144-5.492,0.144s-3.486-0.413-5.828-0.633c1.448,0.669,32.479,15.96,54.622,4.659
				C612.359,309.214,609.994,294.709,609.994,282.337z"/>
		</g>
	</g>
</g>
<path opacity="0.3" fill="#541818" d="M355.601,268.816c0,0,5.479,30.525,6.515,33.413c0,0-5.719,10.673,0,47.472
	c0,0-2.449-40.368,2.385-46.535L355.601,268.816z"/>
<path fill="#541818" d="M525.609,311.546"/>
</svg>
