<?xml version="1.0" encoding="utf-8"?>
<!-- Generator: Adobe Illustrator 16.0.0, SVG Export Plug-In . SVG Version: 6.00 Build 0)  -->
<!DOCTYPE svg PUBLIC "-//W3C//DTD SVG 1.1//EN" "http://www.w3.org/Graphics/SVG/1.1/DTD/svg11.dtd">
<svg version="1.1" id="Layer_1" xmlns="http://www.w3.org/2000/svg" xmlns:xlink="http://www.w3.org/1999/xlink" x="0px" y="0px"
	 width="700px" height="400px" viewBox="0 0 700 400" enable-background="new 0 0 700 400" xml:space="preserve">
<ellipse fill="#F05424" cx="359.912" cy="346.948" rx="214.744" ry="36.166"/>
<path fill="#F05424" d="M184.886,346.401c-29.753-1.239-59.076-6.65-77.888-28.248c-5.999-6.889-7.301-23.688,14.459-38.207
	c9.882-9.376,12.102-18.779,1.89-45.323c-10.213-26.545-1.012-52.944,33.304-69.781c34.316-16.837,62.909-11.849,106.548,4.959
	c29.245,8.577,63.714-13.728,79.37-47.181c15.656-33.454,42.563-76.894,91.926-87.517c49.361-10.624,115.641-3.304,135.984,32.484
	s3.994,79.709-10.904,100.997c-11.699,13.382-15.057,50.591,4.932,70.34c19.992,19.752,28.221,87.674-46.336,100.902
	c-49.152,8.722-101.391,6.401-151.262,7.041C306.431,347.642,245.33,349.047,184.886,346.401z"/>
<g>
	<path fill="#5A8ECA" d="M298.91,328.042c-1.354-1.5-3.014-2.596-4.741-3.527c-1.732-0.943-3.675-1.398-5.563-1.902
		c-1.893-0.506-3.828-0.852-5.766-1.08c-1.942-0.215-3.901-0.209-5.829-0.072c-0.056,0.004-0.099,0.055-0.095,0.109
		c0.003,0.051,0.043,0.09,0.092,0.096h0.005c1.917,0.189,3.812,0.398,5.659,0.877c1.852,0.42,3.674,0.949,5.441,1.631
		c1.779,0.656,3.438,1.572,5.215,2.207c1.776,0.652,3.55,1.313,5.469,1.834c0.056,0.02,0.115-0.012,0.133-0.068
		C298.943,328.11,298.932,328.069,298.91,328.042z"/>
	<path fill="#5A8ECA" d="M307.424,325.841c1.047-1.178,1.886-2.361,2.728-3.541c0.853-1.158,1.449-2.48,2.3-3.654
		c0.825-1.189,1.808-2.256,2.868-3.25c1.042-1.029,2.265-1.836,3.538-2.613l0.006-0.004c0.048-0.029,0.063-0.094,0.034-0.141
		c-0.025-0.043-0.076-0.059-0.121-0.045c-1.422,0.486-2.82,1.139-4.091,2c-1.249,0.883-2.447,1.873-3.493,3.008
		c-1.044,1.125-2.156,2.256-2.808,3.668c-0.653,1.4-1.15,2.891-1.155,4.504c0,0.061,0.048,0.107,0.108,0.107
		c0.032,0,0.061-0.014,0.081-0.035L307.424,325.841z"/>
</g>
<polygon fill="#2EA3DC" points="525.252,222.571 251.451,346.036 202.3,346.036 525.252,200.789 "/>
<polygon fill="#2EA3DC" points="525.006,215.94 525.006,346.036 479.945,346.036 479.945,243.271 "/>
<polygon fill="#2EA3DC" points="458.822,238.297 458.822,346.036 413.764,346.036 413.764,270.175 "/>
<path fill="#F05424" d="M578.824,251.874c0,0-0.291-12.227,4.963-14.895C589.043,234.313,591.199,242.185,578.824,251.874z"/>
<path fill="#F05424" d="M574.045,235.073c0,0-4.564-12.738,0.025-17.369C578.66,213.071,583.666,220.585,574.045,235.073z"/>
<path opacity="0.3" fill="#2EA3DC" d="M448.08,212.806c0,0,8.818-10.262,6.189-16.229
	C451.641,190.609,444.277,195.835,448.08,212.806z"/>
<path opacity="0.3" fill="#2EA3DC" d="M459.016,194.859c0,0,5.061-5.888,3.553-9.311
	C461.059,182.125,456.834,185.123,459.016,194.859z"/>
<path opacity="0.3" fill="#2EA3DC" d="M314.387,241.569c0,0,3.914-12.953-0.904-17.346
	C308.665,219.829,304.044,227.587,314.387,241.569z"/>
<path opacity="0.3" fill="#2EA3DC" d="M529.98,199.709c0,0,0.143-13.531,6.055-16.281
	C541.947,180.676,544.035,189.462,529.98,199.709z"/>
<path opacity="0.3" fill="#2EA3DC" d="M196.894,276.726c0,0-4.183-12.867-10.647-13.723
	C179.782,262.146,180.418,271.153,196.894,276.726z"/>
<path opacity="0.3" fill="#2EA3DC" d="M192.6,293.122c0,0-1.196-10.074-5.824-11.648S181.299,286.616,192.6,293.122z"/>
<path fill="#F05424" d="M584.729,227.003c0,0,1.088-9.92,5.629-11.51C594.896,213.905,595.789,220.505,584.729,227.003z"/>
<path opacity="0.3" fill="#2EA3DC" d="M530.875,212.958c0,0,1.088-9.922,5.627-11.511
	C541.043,199.858,541.936,206.459,530.875,212.958z"/>
<path opacity="0.3" fill="#2EA3DC" d="M177.842,325.122c0,0-8.479-5.264-12.531-2.672S165.903,329.817,177.842,325.122z"/>
<path fill="#F05424" d="M253.732,136.034c-2.703-17.837,7.475-34.361,23.042-42.604c17.328-9.176,50.297-9.054,48.379,18.115
	c-1.042,14.754-10.583,27.618-22.905,35.247c-11.479,7.106-31.041,12.845-42.247,2.324c-3.112-2.92-5.023-6.96-5.915-11.135
	C253.949,137.338,253.831,136.688,253.732,136.034z"/>
<path opacity="0.3" fill="#2EA3DC" d="M428.916,84.737c-3.617,0.352-7.283,1.421-9.748,2.392c-9.535,3.758-19.682,9.51-24.658,18.87
	c-8.563,16.11-9.012,33.011,7.213,38.082c16.227,5.072,20.65-9.929,18.664-20.007c-1.029-5.223,0.342-10.434,4.174-14.191
	c6.014-5.896,16.109-6.819,16.205-17.162C440.834,85.553,434.945,84.149,428.916,84.737z"/>
<path opacity="0.3" fill="#2EA3DC" d="M186.829,183.21c12.61-8.597,30.957-12.502,39.17-2.299
	c16.509,20.508-24.08,34.301-37.611,34.869c-9.45,0.396-16.559-7.162-14.299-16.895C175.393,193.273,180.355,187.623,186.829,183.21
	z"/>
<path fill="#9A857A" d="M515.318,204.722c0,0,0.461-15.969-0.09-23.466c-0.16-2.192-1.27-4.218-3.068-5.481
	c-8.389-5.886-16.455-8.4-16.455-8.4s-16.127,2.858-19.293,10.394c-0.215,4.99-2.24,22.968,5.594,41.06
	c-1.504,1.953-5.27,4.574-6.012,6.773l11.156-4.049c0,0-2.857-18.545-1.648-22.873c0.631-3.981,4.131-18.67,4.131-18.67
	l15.816,4.125l6.373,21.028l0.373,3.741l11.213-1.006C520.098,205.93,515.318,204.722,515.318,204.722z"/>
<path opacity="0.5" fill="#9A857A" d="M511.822,205.162l0.154,1.544c1.25-0.41,2.422-1.039,3.342-1.984l-5.186-11.665l-2.924-9.884
	l-17.576-3.164l15.816,4.125L511.822,205.162z"/>
<path fill="#0A1B33" d="M515.318,204.722c-2.635,1.137-3.496,0.44-3.496,0.44l0.373,3.741l11.213-1.006
	C520.098,205.93,515.318,204.722,515.318,204.722z"/>
<path fill="#F9F7F0" d="M449.631,172.12c0,0-1.961,0.579-3.873,0.652c-1.91,0.073-3.932,1.299-3.932,1.299l3.447,0.335l-5.377,4.04
	c0,0,2.941,0.834,4.854,0.193s6.131-3.86,6.131-3.86S451.02,173.245,449.631,172.12z"/>
<path fill="#F9F7F0" d="M506.904,143.954c0,0,1.379-3.36,4.938-4.548c-0.213,0.886-1.203,2.493-1.203,2.493l1.203-0.685v5.021
	l-3.246,0.729C508.596,146.964,506.584,145.784,506.904,143.954z"/>
<path fill="#2EA3DC" d="M489.037,101.909c0,0-13.336,11.852-34.18,17.471c9.879,2.145,22.582,4.639,36.152,1.273L489.037,101.909z"
	/>
<path fill="#0A1B33" d="M487.557,111.614l-3.859,4.083c0,0,1.666,3.867,7.313,4.957l-1.014-9.622L487.557,111.614z"/>
<path fill="#2EA3DC" d="M513.441,88.962c0,0-20.072,3.518-30.969,8.621c-1.777,1.411,1.225,18.114,1.225,18.114
	s14.064-4.843,28.98-4.718L513.441,88.962z"/>
<path fill="#2EA3DC" d="M449.631,172.12c0,0-0.119,2.036,1.387,3.173c0,0,14.434-7.304,20.254-14.42
	c1.076,2.279,4.607,12.713,5.141,16.895c5.031,0.207,16.008-4.573,19.293-10.394c0,0-6.654-6.058-8.771-12.162
	c0,0,12.523,0.107,21.662-8.248c0,0,0.396-1.448-1.691-3.01L498,148.669c0,0-10.883-2.21-15.598-2.721
	c-3.152,0.045-9.361,0.893-13.861,5.271c-1.863,2.328-6.053,7.262-9.559,12.983C457.104,165.884,449.631,172.12,449.631,172.12z"/>
<path fill="#F9F7F0" d="M472.955,144.353l0.408,4.513c0,0,1.049,1.728,3.049,0.81s1.779-2.223,1.779-2.223l-2.512-4.377
	C475.68,143.075,473.566,143.456,472.955,144.353z"/>
<g>
	<path fill="#0A1B33" d="M508.871,214.978c-0.037,0-0.076-0.002-0.115-0.006c-0.563-0.063-0.969-0.57-0.906-1.133
		c2.475-22.272,4.473-124.511,4.492-125.542c0.012-0.567,0.51-0.994,1.047-1.007c0.566,0.011,1.018,0.48,1.008,1.047
		c-0.02,1.031-2.021,103.363-4.506,125.728C509.832,214.589,509.387,214.978,508.871,214.978z"/>
</g>
<path fill="#F9F7F0" d="M512.977,146.235c0,0,1.832-0.07,1.67-4.023c-0.197-1.033-0.564-1.526-1.543-1.301
	c-0.789,0.225-1.262,3.043-1.262,3.043S511.762,144.954,512.977,146.235z"/>
<path fill="#FDD9CC" d="M476.338,144.222l-0.381-0.662c-0.139-0.149-0.295-0.301-0.463-0.445c-0.514,0.112-2.033,0.496-2.539,1.238
	l0.273,3.024C474.822,146.938,476.098,144.673,476.338,144.222z"/>
<path fill="#F9F7F0" d="M468.209,139.539c0,0-0.09,4.984,1.117,5.919c1.209,0.936,3.459,0.918,7.057-1.32
	c1-1.064-0.277-5.592-1.002-6.133S469.357,138.849,468.209,139.539z"/>
<path fill="#0A1B33" d="M477.525,137.882c-1.029-3.113-2.561-3.286-4.682-2.244c-2.123,1.042-3.455,1.042-5.568-0.087
	c-1.805-0.7-5.5-0.651-5.369,3.213c0.043,1.824,3.07,3.725,6.303,2.258c1.66-1.153,4.598-1.428,5.486,0.697
	c0.111-1.368,0.912-2.293,1.801-1.323c0.648,0.567,0.84,1.766,0.889,2.655c0.02,0.369,0.508,0.502,0.699,0.186
	C477.695,142.233,478.363,140.413,477.525,137.882z"/>
<path opacity="0.5" fill="#9A857A" d="M489.633,180.009l-7.082,19.856l2.1,17.005l-2.645,1.957c0,0,2.875,0.992,4.844,0.672
	c-0.699-4.943-2.311-17.377-1.348-20.82C486.133,194.697,489.633,180.009,489.633,180.009z"/>
<path fill="#0A1B33" d="M486.637,217.96c-2.219,1.697-4.631,0.867-4.631,0.867c-1.504,1.953-5.27,4.574-6.012,6.773l11.156-4.049
	C487.15,221.552,486.93,220.118,486.637,217.96z"/>
<path opacity="0.3" fill="#4358A7" d="M485.793,175.268c-8.32,1.482-7.875-0.93-7.875-0.93l1.291-1.722l-2.021-0.993l-4.232-13.084
	l-1.684,2.334c1.076,2.279,4.607,12.713,5.141,16.895C478.725,177.862,482.291,176.896,485.793,175.268z"/>
<g>
	<path fill="#F9F7F0" d="M427.307,224.983c0,0,1.283,14.037-0.818,20.898c4.498-0.707,11.068-2.285,11.068-2.285
		s-4.42-1.883-6.922-1.445c0,0,5.238-13.936,6.922-20.68C436.691,219.706,427.908,219.155,427.307,224.983z"/>
	<path fill="#F9F7F0" d="M402.898,233.489l-6.512,28.922l12.658-3.646c0,0-5.322-0.951-7.572-0.867c0,0,5.514-9.689,7.32-14.826
		c1.805-5.135,5.295-10.143,1.277-12.969S402.898,233.489,402.898,233.489z"/>
	<path fill="#8265AC" d="M434.371,242.528c-2.271,0.898-2.928,1.199-5.059,0.125c-0.561-0.281-2.104-0.193-2.104-0.193l-0.002,0.002
		c-0.176,1.248-0.41,2.412-0.719,3.42c4.498-0.707,11.068-2.285,11.068-2.285S436.09,242.974,434.371,242.528z"/>
	<path fill="#8265AC" d="M409.045,258.765c0,0-2.854-0.51-5.268-0.75c-1.166,1.318-3.164,1.02-4.328,0.699
		c-1.242-0.342-2.258,0.129-2.258,0.129l-0.805,3.568L409.045,258.765z"/>
	<path fill="#FDD9CC" d="M427.307,224.983c0,0,0.332,3.648,0.381,8.133c3.074-4.768,9.467-10.178,9.467-10.178
		s0.012-0.01,0.016-0.014c0.143-0.512,0.273-1,0.387-1.453C436.691,219.706,427.908,219.155,427.307,224.983z"/>
	<path fill="#FDD9CC" d="M408.008,233.944c-0.631,0.152-4.031,0.723-5.426,0.955l-0.604,2.678c0,0,2.348,3.646,7.096,4.734
		c0.918-2.408,2.098-4.764,2.602-6.857C410.305,234.671,408.514,233.823,408.008,233.944z"/>
	<path fill="#2EA3DC" d="M438.273,220.36c-1.813-2.691-5.287-5.674-14.738-5.463c-5.623-2.428-11.709-2.594-16.545-0.391
		c0,0-3.799,5.57-4.09,12.43c-0.254,4.016-1.387,6.967-2.137,8.525c-0.355,0.734-0.018,1.617,0.738,1.928
		c2.686,1.104,8.824,2.867,15.463-0.393c0.936-0.459,1.77-1.1,2.457-1.883c3.117-3.559,6.969-10.18,17.732-12.176
		C438.348,222.718,438.951,221.368,438.273,220.36z"/>
	<path opacity="0.3" fill="#4358A7" d="M413.051,213.017c-2.139,0.152-4.193,0.641-6.061,1.49c0,0-3.799,5.57-4.09,12.43
		c-0.254,4.016-1.387,6.967-2.137,8.525c-0.355,0.734-0.018,1.617,0.738,1.928c0.973,0.398,2.4,0.883,4.137,1.186
		c-0.008-0.008-2.816-2.861-2.104-4.643s2.854-5.352,2.734-10.107s8.852-7.115,8.852-7.115
		C415.58,215.356,414.541,214.069,413.051,213.017z"/>
	<path fill="#FEE9E2" d="M446.74,180.32l0.836-2.457c0,0-1.014,0.416-1.551,1.011c-1.133,0.953-1.979,4.349-1.979,4.349
		c-0.611,1.943,1.559,2.334,1.559,2.334s5.445-3.397,6.047-3.768c0.602-0.371,1.34-3.922,1.615-5.076
		C450.203,177.078,446.74,180.32,446.74,180.32z"/>
	<path fill="#8265AC" d="M421.578,193.137c0,0,9.338-2.643,12.781-4.636c3.445-1.993,9.688-5.278,9.688-5.278
		s1.439,1.126,1.559,2.334c0,0-13.959,12.636-19.945,14.234C420.07,200.822,421.578,193.137,421.578,193.137z"/>
	<path opacity="0.5" fill="#FAAA3C" d="M430.76,194.619c-1.959,0.35-5.053-1.138-6.893-2.162c-1.367,0.419-2.289,0.68-2.289,0.68
		s-1.508,7.686,4.082,6.654c3.262-0.87,8.883-5.015,13.33-8.608C436.406,192.484,432.596,194.291,430.76,194.619z"/>
	<path fill="#8265AC" d="M415.473,193.735c0,0,6.16-0.963,7.865-0.793c1.705,0.169,5.029,5.163,4.699,7.613
		s-1.693,2.148-3.059,4.159c-1.365,2.01-0.713,10.183-0.713,10.183s-10.756,4.373-16.545-0.391
		C408.342,212.405,415.473,193.735,415.473,193.735z"/>
	<path fill="#F9F7F0" d="M420.514,190.341l1.002,2.942c0.072,0.21,0.076,0.439-0.004,0.647c-0.172,0.444-0.619,1.14-1.748,1.126
		c-0.861-0.01-1.342-0.276-1.604-0.529c-0.209-0.201-0.293-0.494-0.264-0.782l0.354-3.449
		C418.25,190.296,419.818,189.912,420.514,190.341z"/>
	<path opacity="0.5" fill="#FAAA3C" d="M410.822,210.017l5.469-11.613c-0.443-1.51-1.398-2.157-2.422-2.378
		c-1.922,5.052-6.393,16.837-6.879,18.481c2.264,1.863,5.287,2.326,8.131,2.203c-1.092-0.438-2.023-0.932-2.797-1.414
		C410.553,214.194,409.932,211.905,410.822,210.017z"/>
	<path fill="#FEE9E2" d="M394.742,216.165c0,0-0.988,2.379-1.441,4.813c-0.365,2.346,1.162,5.521,1.162,5.521
		s1.553-2.082,1.836-4.992c0.102-1.369,0.141-1.617,0.141-1.617l1.715,1.582c0,0-0.092-2.641-1.24-4.504
		C396.355,215.103,395.039,215.874,394.742,216.165z"/>
	<path fill="#8265AC" d="M414.742,193.735c0,0-7.453,1.87-14.85,8.961c-2.299,2.17-5.15,13.469-5.15,13.469s0.791,0.598,2.172,0.803
		c0.887-1.094,5.018-10.033,6.893-10.804c1.873-0.771,9.383-2.729,11.297-5.31C417.018,198.274,417.125,194.47,414.742,193.735z"/>
	<path opacity="0.5" fill="#FAAA3C" d="M416.291,198.403c0,0-5.641,2.877-8.715,4.167c-3.074,1.291-5.031,2.256-5.031,2.256
		l-2.549,6.606c1.377-2.463,2.875-4.884,3.811-5.269c1.873-0.771,9.383-2.729,11.297-5.31
		C415.658,200.105,416.057,199.254,416.291,198.403L416.291,198.403z"/>
	<path fill="#8265AC" d="M417.746,192.683c-0.066,0.024-0.125,0.086-0.18,0.207c-0.191,0.429-0.119,1.285,0.125,1.686
		c0.455,0.752,1.824,1.201,3.283,0.667s1.328-1.857,1.018-2.479c-0.121-0.244-0.516-0.962-0.879-0.73
		c-0.213,0.135-0.066,0.498-0.273,0.686c-0.1,0.092-0.229,0.146-0.357,0.193c-0.568,0.208-1.596,0.456-2.141,0.071
		C418.146,192.845,418.033,192.579,417.746,192.683z"/>
	<path fill="#FDD9CC" d="M420.672,190.805l-0.158-0.464c-0.695-0.429-2.264-0.045-2.264-0.045l-0.199,1.948
		C419.525,192.105,420.307,191.351,420.672,190.805z"/>
	<path fill="#0A1B33" d="M412.008,184.983c-0.291-0.159-0.617-0.274-0.955-0.341c-1.99-0.389-2.916,0.505-4.502,1.363
		c-1.527,0.828-4.59-2.141-9.43,0.334c-4.84,2.474-7.092,7.419-5.857,11.292c1.232,3.873,7.455,5.435,12.703,1.663
		c4.848-3.521,4.412-6.766,4.893-8.536c0.242-0.887,0.594-1.762,1.627-1.748c1.414,0.019,2.809-0.188,2.813-1.96
		C413.301,186.109,412.764,185.396,412.008,184.983z"/>
	<path opacity="0.5" fill="#046938" d="M412.008,184.983c-0.059-0.032-0.125-0.055-0.188-0.083c0.012,0.244,0.039,0.508,0.105,0.812
		c0.422,1.91-1.035,2.388-1.615,2.15s-1.5-0.206-2.166,1.261c-0.668,1.467-2.824,4.856-7.133,7.786
		c-4.227,2.684-7.76,1.81-9.67,0.915c1.379,3.727,7.467,5.177,12.625,1.471c4.848-3.521,4.412-6.766,4.893-8.536
		c0.242-0.887,0.594-1.762,1.627-1.748c1.414,0.019,2.809-0.188,2.813-1.96C413.301,186.109,412.764,185.396,412.008,184.983z"/>
	<path fill="#F9F7F0" d="M421.805,182.654c0,0,3.037,3.952,2.621,5.422c-0.414,1.471-2.232,2.796-6.455,3.136
		c-1.439-0.261-2.908-4.625-2.844-5.526C415.545,179.783,420.283,181.61,421.805,182.654z"/>
	<path fill="#0A1B33" d="M421.943,182.834c-0.641,1.063-1.691,2.452-3.08,3.066c-0.383,0.377-0.301,0.928-0.381,1.404
		c-0.076,0.447-0.348,0.444-0.646,0.128c-0.252-0.267-0.473-0.406-0.869-0.401c-0.875,0.008-0.895,1.784-0.094,2.668
		c0.213,0.234-0.012,0.608-0.32,0.547c-0.801-0.159-1.844-0.708-2.453-1.966c-1.01-2.079-1.225-4.956,0.834-7.02
		c1.631-1.636,4.246-1.949,6.279-0.905C422.125,180.825,422.473,181.955,421.943,182.834z"/>
	<path fill="#8265AC" d="M414.137,185.146c0,0-0.98-1.768-2.016-0.691c-1.037,1.074-0.107,3.003,0.721,3.641
		c0.83,0.639,1.752-0.347,1.766-1.254C414.623,185.934,414.137,185.146,414.137,185.146z"/>
</g>
<path fill="#0A1B33" d="M347.937,200.915c0,0,4.019-3.687,7.849-1.719s1.934,6.967,1.697,8.889
	c-0.238,1.922,1.652,2.801,1.855,4.494c0.203,1.695-0.557,7.281-5.701,7.434c-5.145,0.154-7.548,2.264-8.849,3.889
	c-1.3,1.623-8.9,2.219-9.411-3.889c-0.584-5.148,3.524-6.297,5.668-7.676c1.273-0.818,0.404-1.9-0.254-2.824
	c-1.657-2.33-1.888-5.099-0.091-7.41C342.516,199.768,345.434,199.56,347.937,200.915z"/>
<path opacity="0.5" fill="#E3485E" d="M344.789,223.899c1.3-1.623,3.703-3.732,8.848-3.887c5.145-0.152,5.904-5.738,5.701-7.434
	c-0.076-0.629-0.385-1.145-0.73-1.645c-1.439,5.027-6.242,5.813-13.838,7.9c-5.162,1.418-7.629-0.953-8.708-2.701
	c-0.567,0.971-0.874,2.215-0.685,3.879C335.888,226.12,343.488,225.524,344.789,223.899z"/>
<path fill="#2EA3DC" d="M358.18,215.989c0,0,8.414,0.258,11.34-0.189c2.924-0.449,11.105-5.568,12.256-6.447
	c1.139,0.063,2.18,2.541,2.18,2.541s-7.125,7.615-12.889,9.955c-5.764,2.342-13.184,1.16-13.184,1.16
	S354.246,217.837,358.18,215.989z"/>
<path fill="#F9F7F0" d="M381.775,209.353l2.148-4.329l0.301,2.405l5.99-5.157c0,0-0.373,4.126-1.066,5.157
	c-0.695,1.033-5.193,4.465-5.193,4.465S381.26,210.392,381.775,209.353z"/>
<path opacity="0.5" fill="#E076AF" d="M364.49,221.276c-2.25-0.41-4.285-3.568-5.229-5.26c-0.662-0.014-1.082-0.027-1.082-0.027
	c-3.934,1.848-0.297,7.02-0.297,7.02s7.42,1.182,13.184-1.16c1.824-0.74,3.783-2.01,5.611-3.398
	C374.43,220.243,367.576,221.837,364.49,221.276z"/>
<path fill="#F9F7F0" d="M358.402,238.644c0,0,16.275,4.219,17.404,12.477c-0.006,4.092-5.25,22.398-5.25,22.398l6.361,2.074
	l-10.668,1.553c0,0,0.438-14.26,2.254-22.068c-1.953-2.225-13.797-6.35-13.797-6.35l-4.77,15.971l-2.045,18.48l0.873,3.715
	l-9.18,2.828l4.745-5.822l-2.569-17.793c-0.167-1.156-0.203-2.322-0.107-3.486c0.402-4.9,1.695-18.533,3.964-23.682
	C347.119,236.29,358.402,238.644,358.402,238.644z"/>
<path fill="#0A1B33" d="M373.219,263.7c1.299-5.047,2.586-10.555,2.588-12.58c-1.129-8.258-17.404-12.477-17.404-12.477
	s-11.283-2.354-12.784,0.295c-2.269,5.148-3.562,18.781-3.964,23.682c-0.096,1.164-0.06,2.33,0.107,3.486l0.9,6.238
	c2.641,1.609,6.486-0.523,6.486-0.523l0.789-7.123l4.77-15.971c0,0,11.844,4.125,13.797,6.35c-0.525,2.252-0.934,5.043-1.25,7.873
	C369.834,264.933,373.219,263.7,373.219,263.7z"/>
<path fill="#2EA3DC" d="M343.393,219.438c0,0,3.131-2.49,7.271-3.342c4.143-0.852,7.516-0.107,7.516-0.107s3.703,6.18,1.553,9.6
	c-2.152,3.42-1.992,5.281-1.846,7.854c0.145,2.572,0.516,5.201,0.516,5.201s-6.6,3.586-12.784,0.295
	C345.27,235.542,345.314,228.192,343.393,219.438z"/>
<path fill="#F9F7F0" d="M352.479,212.12l1.564,4.594c0,0-0.273,2.146-2.631,2.121c-2.357-0.027-2.709-1.402-2.709-1.402l0.553-5.377
	C349.256,212.056,351.488,211.509,352.479,212.12z"/>
<path fill="#734024" d="M370.557,273.519c0,0-2.264,0.977-4.15,0.094c-0.113,2.146-0.156,3.533-0.156,3.533l10.668-1.553
	L370.557,273.519z"/>
<path fill="#FDD9CC" d="M349.232,212.29l-0.359,3.484c2.133,0.01,3.916-2.516,3.916-2.516l-0.488-0.74L349.232,212.29z"/>
<path fill="#F9F7F0" d="M353.459,204.692c0,0,3.254,4.232,2.809,5.809c-0.445,1.574-2.393,2.992-6.916,3.357
	c-1.541-0.279-3.113-4.953-3.045-5.92C346.754,201.616,351.828,203.574,353.459,204.692z"/>
<path fill="#0A1B33" d="M349.23,209.409c0.023-0.752-1.478-1.549-0.768-2.363c3.344,0.504,6.348-2.104,6.348-2.104
	c-0.031-1.76-3.691-4.283-7.543-2.258c-3.854,2.026-2.52,8.602-0.833,9.895s2.938,0.342,2.938,0.342
	c-0.855-0.055-1.687-2.895-1.804-3.65C347.475,208.651,349.037,209.376,349.23,209.409z"/>
<path opacity="0.5" fill="#E076AF" d="M346.742,235.315c-0.303-1.662,0-10.879,0-10.879c-0.322-0.178-1.366-0.037-2.404,0.15
	c0.971,6.432,1.002,11.646,1.28,14.352c2.003,1.066,4.046,1.404,5.897,1.383C349.26,238.896,346.983,236.646,346.742,235.315z"/>
<path fill="#F9F7F0" d="M323.199,237.909l-5.611-0.594l2.033,1.668l-5.315,3.527c0,0,3.058,0.684,5.037,0.029
	c1.98-0.654,5.015-1.988,5.015-1.988S326.096,238.829,323.199,237.909z"/>
<path fill="#2EA3DC" d="M343.393,219.438c0,0,3.915,2.527,3.491,6.865c-0.41,2.02-7.478,10.051-22.879,14.258
	c-0.623-1.223-1.039-2.703-1.039-2.703s9.473-4.092,11.975-7.014C337.442,227.921,340.721,220.858,343.393,219.438z"/>
<path opacity="0.5" fill="#E076AF" d="M334.39,236.653c8.242-4.088,12.19-8.857,12.494-10.35c0.159-1.631-0.296-3.008-0.925-4.088
	C345.803,226.603,334.807,236.288,334.39,236.653z"/>
<path opacity="0.5" fill="#764E2A" d="M368.504,255.077c-0.525,2.252-0.934,5.043-1.25,7.873c1.385,1.064,2.996,1.199,4.197,1.1
	c-0.869-0.859-2.473-2.424-2.271-4.947c0.258-3.262,1.033-5.588,1.033-5.588l-15.506-4.787
	C354.707,248.728,366.551,252.853,368.504,255.077z"/>
<path opacity="0.5" fill="#764E2A" d="M349.148,271.821l0.789-7.123l4.77-15.971l-6.469,15.35c0,0-0.345,1.416-0.311,4.346
	c0.023,2.025-1.855,3.686-3.018,4.518C347.063,272.972,349.148,271.821,349.148,271.821z"/>
<path fill="#FDD9CC" d="M369.902,263.499c0,0-1.436-0.916-2.529-1.572c-0.543,4.49-0.844,9.232-0.994,12.207
	c0.506,0.197,0.951,0.365,0.951,0.365L369.902,263.499z"/>
<path fill="#FDD9CC" d="M347.893,283.179l1.449-13.105c-1.203,0.947-2.426,2.094-2.426,2.094v11.641l1.069-0.232L347.893,283.179z"
	/>
<path fill="#734024" d="M348.766,286.894l-0.873-3.715c-1.49,1.406-3.562,0.721-3.562,0.721l-4.745,5.82L348.766,286.894z"/>
<path fill="#2EA3DC" d="M245.045,289.28c0,0,12.979,8.068,14.769,11.531s-2.906,22.346-2.906,22.346l5.377,1.926l-9.1,1.617
	c0,0-0.268-14.402,0.468-19.615c-3.404-1.074-12.465-6.551-12.465-6.551l-1.975,16.453l2.301,17.652l-6.616,4.504l2.884-5.904
	c0,0-4.512-12.316-6.121-15.773c-1.609-3.459-2.388-17.512-2.71-21.969S241.795,288.378,245.045,289.28z"/>
<path opacity="0.5" fill="#1D76BB" d="M258.651,323.78l-1.743-0.623c-2.062,0.025-3.07-1.281-3.07-1.281l1.212-16.084l-13.861-5.258
	c0,0,9.061,5.477,12.465,6.551c-0.618,4.383-0.528,15.254-0.483,18.609c1.822-0.297,3.736-0.613,4.548-0.766
	C258.69,324.745,258.948,324.216,258.651,323.78z"/>
<polygon opacity="0.5" fill="#1D76BB" points="237.564,315.478 240.994,330.651 240.994,330.651 239.213,316.987 241.188,300.534 
	"/>
<path opacity="0.5" fill="#1D76BB" d="M229.242,294.214c-0.215,0.408-0.323,0.836-0.291,1.283c0.278,3.842,0.896,14.811,2.091,19.98
	l0,0c-1.231-9.436,4.968-21.811,4.968-21.811C234.64,294.214,231.646,294.257,229.242,294.214z"/>
<path fill="#F9F7F0" d="M237.439,255.778c0.017,0.533,0.816,14.438,0.816,14.438s3.207,0.533,3.899-1.381
	c0.693-1.914-2.465-13.906-2.465-13.906L237.439,255.778z"/>
<path fill="#FDD9CC" d="M240.171,256.823c-0.284-1.148-0.48-1.895-0.48-1.895l-2.251,0.85c0.007,0.227,0.154,2.84,0.321,5.781
	l0.68-2.375L240.171,256.823z"/>
<path fill="#734024" d="M232.459,257.966l14.852-13.797c0,0,3.213,3.059,3.286,5.379l-16.938,9.568
	C233.659,259.116,232.772,259.636,232.459,257.966z"/>
<path opacity="0.5" fill="#CFBA8F" d="M247.311,249.704c-1.228,0.133-1.826-1.262-2.624-0.598s-2.259,1.689-1.949,2.574
	c0.29,0.826-7.656,5.723-9.894,7.242c0.371,0.439,0.814,0.193,0.814,0.193l16.938-9.568c-0.073-2.32-3.286-5.379-3.286-5.379
	S248.698,248.823,247.311,249.704z"/>
<path fill="#F9F7F0" d="M229.212,267.427l2.81,3.705c0,0,0.399,2.035-1.753,2.723c-2.152,0.688-2.886-0.457-2.886-0.457
	l-1.121-5.057C226.263,268.341,228.128,267.171,229.212,267.427z"/>
<path fill="#F9F7F0" d="M243.845,266.585l2.021-1.07l-1.056-9.551l-2.713-1.615l1.348-0.865c0,0-0.837-1.736-0.9-2.742
	c-0.063-1.004,0.484-1.426,2.204-1.281c0.952,0.229,2.468,2.969,2.194,4.859c-0.274,1.893,2.924,12.324,3.586,13.957
	s-3.692,4.119-3.692,4.119s-2.146,0.977-3.579-1.148C241.825,269.124,243.845,266.585,243.845,266.585z"/>
<path fill="#E4362F" d="M229.955,270.964c1.615-0.852,3.61-1.609,6.001-2.012c4.171-1.068,7.889-2.367,7.889-2.367
	s2.52,2.395,2.991,5.811c0,0-3.358,3.738-7.268,5.078c0.102,1.99,3.315,10.172,5.478,11.807c-0.621,2.143-9.712,7.168-16.094,6.217
	c-1.503-1.564-2.892-9.732-3.672-15.197C224.738,276.517,226.575,272.749,229.955,270.964z"/>
<path fill="#F9F7F0" d="M226.263,268.341l0.794,3.582c1.88-0.74,2.839-3.594,2.839-3.594l0,0l-0.684-0.902
	C228.128,267.171,226.263,268.341,226.263,268.341z"/>
<path fill="#F9F7F0" d="M227.861,260.376c0,0,4.237,2.867,4.308,4.434c0.07,1.566-1.272,3.445-5.276,5.141
	c-1.485,0.213-4.326-3.564-4.556-4.463C220.836,259.603,226.042,259.851,227.861,260.376z"/>
<path fill="#0A1B33" d="M224.623,263.634c0,0,5.159-2.494,4.869-5.391c-0.29-2.895-5.135-2.98-6.84-1.539
	c-0.727,0.613-0.958,1.379-1.234,2.246c-0.312,0.973-0.915,1.451-1.657,2.182c-0.239,0.236-0.479,0.473-0.673,0.746
	c-1.047,1.479-0.183,2.605,0.476,3.969c0.633,1.309,1.27,2.662,2.507,3.512c2.152,1.479,4.693,0.391,4.194-1.018
	C225.763,266.935,223.263,264.407,224.623,263.634z"/>
<path opacity="0.5" fill="#781214" d="M239.568,277.474l-4.937,1.252c0,0,5.5,9.783,10.415,10.555
	C242.883,287.646,239.67,279.464,239.568,277.474z"/>
<path fill="#781214" d="M256.908,323.157c0,0-2.663,0.738-3.757,0.75c0.014,1.695,0.035,2.793,0.035,2.793l9.1-1.617
	L256.908,323.157z"/>
<path fill="#781214" d="M241.116,331.585c-1.048,1.111-3.333,1.654-3.333,1.654l-2.884,5.904l6.616-4.504L241.116,331.585z"/>
<polygon fill="#2EA3DC" points="393.078,263.324 393.078,346.036 348.018,346.036 348.018,302.528 "/>
<path fill="#E4362F" d="M308.626,297.683c0,0,1.088-17.473,1.289-20.92c-4.204-9.869-14.962-16.135-14.962-16.135
	s-3.021-2.488-5.228-1.406c-0.651,0.318-1.248,0.9-1.719,1.67c-1.489-2.832-4.217-4.586-9.179-2.73c0,0-5.481,9.213,2.254,28.244
	c1.153,3.775,0.955,27.047,0.955,27.047l10.006-3.498l-6.238-1.311c0,0,3.328-18.115,4.081-22.404
	c0.754-4.289-0.271-13.795-0.271-13.795s0.033-0.328,0.063-0.881c4.399,5.125,13.225,8.773,13.225,8.773l2.651,21.791l9.218-3.182
	L308.626,297.683z"/>
<path opacity="0.5" fill="#781214" d="M306.356,299.905l-1.203-21.092l-15.474-7.25c4.399,5.125,13.225,8.773,13.225,8.773
	l2.418,19.875C305.901,300.073,306.356,299.905,306.356,299.905z"/>
<path fill="#0A1B33" d="M308.626,297.683c0,0-1.693,1.006-3.473,1.145l0.401,3.301l9.218-3.182L308.626,297.683z"/>
<path opacity="0.5" fill="#781214" d="M288.02,287.528l-3.41,21.977c0,0,3.569,0.146,4.639-0.137l-3.443-0.725
	c0,0,3.328-18.115,4.081-22.404c0.754-4.289-0.271-13.795-0.271-13.795s0.033-0.328,0.063-0.881L288.02,287.528z"/>
<path fill="#0A1B33" d="M285.805,308.644c0,0-2.042,1.365-3.756,1.236c-0.001,2.168-0.013,3.572-0.013,3.572l10.006-3.498
	L285.805,308.644z"/>
<path opacity="0.5" fill="#781214" d="M279.745,274.366c-0.558-3.168,0.188-6.42,2.07-9.029l2.834-3.928
	c0,0,0.298-2.055-0.712-3.863c-1.364-0.297-3.04-0.158-5.109,0.615c0,0-5.481,9.213,2.254,28.244
	C281.356,284.257,280.483,278.56,279.745,274.366z"/>
<path fill="#734024" d="M297.093,238.894c0,0,5.137,3.025,9.86,7.182c4.723,4.154,14.657,6.414,14.657,6.414
	s0.436,3.273-0.558,3.346s-14.929-2.432-14.929-2.432s-8.185-3.248-9.998-6.074C295.091,245.614,294.759,240.179,297.093,238.894z"
	/>
<path fill="#F9F7F0" d="M321.61,252.489l4.643-2.521l-1.184,2.633l6.392,1.377c0,0-2.58,2.414-3.875,2.422
	c-1.295,0.01-6.534-0.564-6.534-0.564S320.48,253.103,321.61,252.489z"/>
<path opacity="0.5" fill="#CFBA8F" d="M307.332,252.294c-1.264-0.461-2.773-1.164-4.124-1.93c-2.113-1.193-3.372-3.449-3.45-5.877
	c-0.051-1.584-0.281-3.111-0.493-4.221c-1.319-0.869-2.172-1.373-2.172-1.373c-2.334,1.285-2.002,6.721-0.968,8.436
	c1.813,2.826,9.998,6.072,9.998,6.072s4.559,0.82,8.648,1.508C314.77,254.909,310.298,253.372,307.332,252.294z"/>
<path fill="#734024" d="M285.988,237.235c0,0,8.803-0.441,11.105,1.646s1.192,9.957-1.714,13.645
	c-1.385,1.982-0.426,8.152-0.426,8.152s-9.915,3.725-16.126-2.361C279.284,256.181,282.851,240.579,285.988,237.235z"/>
<path fill="#F9F7F0" d="M290.741,234.95l-1.266,4.648c0,0,0.404,2.111,2.738,1.939c2.335-0.174,2.598-1.557,2.598-1.557l-0.88-5.295
	C293.931,234.687,291.684,234.282,290.741,234.95z"/>
<path fill="#FDD9CC" d="M289.973,237.771c2.975,0.313,4.237-1.402,4.237-1.402l-0.279-1.682c0,0-2.247-0.404-3.189,0.264
	L289.973,237.771z"/>
<path fill="#F9F7F0" d="M289.31,227.649c0,0-2.962,4.396-2.424,5.93s2.556,2.818,7.063,2.898c1.509-0.371,2.778-5.102,2.65-6.055
	C295.763,224.185,290.855,226.438,289.31,227.649z"/>
<path fill="#0A1B33" d="M286.938,226.565c1.576,1.496,4.004,2.727,6.074,2.676c1.257-0.029,1.773,0.982,1.446,1.627
	c-0.328,0.645-1.736,1.965-0.705,2.072s0.983-1.539,1.697-0.824s-0.853,2.59-0.085,3c0.769,0.41,3.413-0.406,2.795-2.189
	c-0.618-1.781,0.299-2.672,1.785-3.619c1.486-0.945,0.317-4.037-1.64-3.689c-1.956,0.348-2.832-0.707-4.297-2.082
	c-1.792-1.686-2.728,0.986-4.574,0.518c-0.733-0.186-1.242-0.996-2.013-1.061c-1.781-0.15-1.95,1.92-1.079,2.945
	C286.522,226.151,286.722,226.36,286.938,226.565z"/>
<path opacity="0.5" fill="#CFBA8F" d="M284.648,261.409c-2.792-1.814-3.442-4.953-2.755-8.121c0.719-3.318,3.937-7.963,3.937-7.963
	c-1.185-1.842-3.357-0.518-3.41-0.379c-1.831,5.545-3.31,12.045-3.593,13.371C280.576,260.03,282.617,260.948,284.648,261.409z"/>
<path fill="#F9F7F0" d="M262.708,261.429l0.649,5.438l-2.048-2.105l-4.578,4.719c0,0-0.37-3.283-0.368-4.162
	c0.002-0.877,3.003-4.676,3.997-5.049C261.354,259.896,262.548,260.093,262.708,261.429z"/>
<path fill="#734024" d="M285.988,237.196c0,0-11.499,2.725-15.115,6.676c-3.22,3.191-10.513,16.396-10.513,16.396
	s1.254,1.166,2.348,1.16c0.79-0.904,9.934-11.461,9.934-11.461s8.843-2.016,12.033-3.793
	C288.321,244.144,288.797,238.669,285.988,237.196z"/>
<path opacity="0.5" fill="#CFBA8F" d="M287.545,242.446c-2.448,2.5-14.76,5.59-14.76,5.59l-3.334,5.615l0,0
	c1.769-2.043,3.191-3.684,3.191-3.684s8.843-2.016,12.033-3.793C286.171,245.341,287.125,243.927,287.545,242.446z"/>
<path fill="#0A1B33" d="M288.862,237.81c0,0,0.376-1.135,1.111-0.57c0.734,0.566,2.141,2.938,3.319,4.098
	c0.171,0.494-1.149,1.82-1.149,1.82S289.318,241.479,288.862,237.81z"/>
<path fill="#0A1B33" d="M293.292,241.337l1.392,1.486c0,0,0.851-1.746,0.852-3.277c0.001-1.529-0.951-1.805-1.16-1.867
	C294.167,237.618,294.229,240.589,293.292,241.337z"/>
<path opacity="0.3" fill="#2EA3DC" d="M538.209,80.165c2.164,3.896,6.887,7.059,8.836,11.104c2.797,5.807-0.412,27.173,9.615,26.198
	c17.902-1.75,6.664-43.437-2.213-49.575c-6.451-4.462-19.453,1.894-17.074,10.292C537.568,78.869,537.854,79.527,538.209,80.165z"/>
<polygon fill="#2EA3DC" points="329.212,301.618 329.212,347.906 284.153,347.906 284.153,323.558 "/>
<polygon opacity="0.3" fill="#4358A7" points="348.018,302.528 393.078,282.173 393.078,288.382 "/>
<polyline opacity="0.3" fill="#4358A7" points="458.822,259.355 413.764,273.502 458.822,253.146 "/>
<polyline opacity="0.3" fill="#4358A7" points="525.006,228.313 479.945,242.46 525.006,222.104 "/>
<polyline opacity="0.3" fill="#4358A7" points="329.433,316.619 284.943,330.84 329.201,311.226 "/>
</svg>
