<svg id="ac0d9cbc-1f17-4a6f-8171-e2a301106b49" data-name="Layer 1" xmlns="http://www.w3.org/2000/svg" xmlns:xlink="http://www.w3.org/1999/xlink" viewBox="0 0 548.06 395.1"><defs><style>.e909abae-b40a-467a-90c8-96c20f8bf914{fill:url(#b062e22f-a1d1-4d0e-903f-e714911e23f3);}.aead8993-d48f-459c-9239-1e1d994123b2,.b18edf21-115a-4701-a1ed-e5fe6469863e{stroke:#2da3dc;}.a0865104-4ccb-4556-9f2c-6758e25671b7,.a4c2ee00-469d-4365-a89a-049885994e78,.a868668e-3fd9-4738-a192-d7b07086f313,.aead8993-d48f-459c-9239-1e1d994123b2,.b10aa147-f1e1-4cbf-8313-59f49144413c,.b18edf21-115a-4701-a1ed-e5fe6469863e,.ed3adc8c-d0fe-4134-9361-7856c1a3a87e{stroke-miterlimit:10;}.a0865104-4ccb-4556-9f2c-6758e25671b7,.a4c2ee00-469d-4365-a89a-049885994e78,.a868668e-3fd9-4738-a192-d7b07086f313,.aead8993-d48f-459c-9239-1e1d994123b2,.b18edf21-115a-4701-a1ed-e5fe6469863e,.ed3adc8c-d0fe-4134-9361-7856c1a3a87e{stroke-width:0.25px;}.b18edf21-115a-4701-a1ed-e5fe6469863e{fill:url(#f9a426c2-49a6-4e78-9b89-e61b797cfda7);}.aead8993-d48f-459c-9239-1e1d994123b2{fill:url(#e3c17b3a-8d59-4d4e-9fb7-649b1ec2d14a);}.a0865104-4ccb-4556-9f2c-6758e25671b7,.a4c2ee00-469d-4365-a89a-049885994e78,.a868668e-3fd9-4738-a192-d7b07086f313,.b10aa147-f1e1-4cbf-8313-59f49144413c,.ed3adc8c-d0fe-4134-9361-7856c1a3a87e{stroke:#f05323;}.a868668e-3fd9-4738-a192-d7b07086f313{fill:url(#e488f1ea-17ae-4227-acbf-a1bf01b559a3);}.a4c2ee00-469d-4365-a89a-049885994e78{fill:url(#f93fc1b2-628e-419e-82b2-5741e508ac2e);}.ed3adc8c-d0fe-4134-9361-7856c1a3a87e{fill:url(#bd45cd6a-3a91-47cc-adc5-3e9eb1795dba);}.a0865104-4ccb-4556-9f2c-6758e25671b7{fill:url(#bbc84b6f-9717-4e58-8a2c-67610036fe2f);}.a06ff3b9-59dd-4a82-a35f-fe367f75994e{fill:url(#e19f87c4-77a8-4b5c-adca-5ee8d7b5ec7a);}.add259b1-534f-49b6-be9f-03acde3a224b{fill:#f05323;}.b10aa147-f1e1-4cbf-8313-59f49144413c{fill:none;stroke-width:5px;}</style><linearGradient id="b062e22f-a1d1-4d0e-903f-e714911e23f3" x1="337.81" y1="217.5" x2="337.81" y2="72.5" gradientTransform="matrix(-1, 0, 0, 1, 627.47, -33.17)" gradientUnits="userSpaceOnUse"><stop offset="0.38" stop-color="#2da3dc"/><stop offset="0.47" stop-color="#2ca0d8"/><stop offset="0.57" stop-color="#2995cb"/><stop offset="0.67" stop-color="#2485b7"/><stop offset="0.76" stop-color="#1d6d9a"/><stop offset="0.86" stop-color="#144e74"/><stop offset="0.96" stop-color="#0a2947"/><stop offset="1" stop-color="#051a34"/></linearGradient><linearGradient id="f9a426c2-49a6-4e78-9b89-e61b797cfda7" x1="113.33" y1="184.33" x2="113.33" y2="39.33" gradientTransform="matrix(1, 0, 0, 1, 0, 0)" xlink:href="#b062e22f-a1d1-4d0e-903f-e714911e23f3"/><linearGradient id="e3c17b3a-8d59-4d4e-9fb7-649b1ec2d14a" x1="145" y1="122.39" x2="145" y2="-22.61" gradientTransform="matrix(1, 0, 0, -1, -31.67, 306.72)" xlink:href="#b062e22f-a1d1-4d0e-903f-e714911e23f3"/><linearGradient id="e488f1ea-17ae-4227-acbf-a1bf01b559a3" x1="217.16" y1="184.33" x2="217.16" y2="39.33" gradientUnits="userSpaceOnUse"><stop offset="0.38" stop-color="#f05323"/><stop offset="0.55" stop-color="#ed4f23"/><stop offset="0.73" stop-color="#e44224"/><stop offset="0.91" stop-color="#d52e25"/><stop offset="1" stop-color="#cb2026"/></linearGradient><linearGradient id="f93fc1b2-628e-419e-82b2-5741e508ac2e" x1="248.83" y1="122.39" x2="248.83" y2="-22.61" gradientTransform="matrix(1, 0, 0, -1, -31.67, 306.72)" xlink:href="#e488f1ea-17ae-4227-acbf-a1bf01b559a3"/><linearGradient id="bd45cd6a-3a91-47cc-adc5-3e9eb1795dba" x1="266.2" y1="217.5" x2="266.2" y2="72.5" gradientTransform="matrix(-1, 0, 0, 1, 700.86, -33.17)" xlink:href="#e488f1ea-17ae-4227-acbf-a1bf01b559a3"/><linearGradient id="bbc84b6f-9717-4e58-8a2c-67610036fe2f" x1="266.2" y1="122.39" x2="266.2" y2="-22.61" gradientTransform="translate(700.86 306.72) rotate(180)" xlink:href="#e488f1ea-17ae-4227-acbf-a1bf01b559a3"/><linearGradient id="e19f87c4-77a8-4b5c-adca-5ee8d7b5ec7a" x1="362.16" y1="184.33" x2="362.16" y2="39.33" gradientTransform="matrix(1, 0, 0, 1, 0, 0)" xlink:href="#b062e22f-a1d1-4d0e-903f-e714911e23f3"/></defs><title>logo-with-name</title><polygon class="e909abae-b40a-467a-90c8-96c20f8bf914" points="289.81 39.33 217.16 39.33 289.81 184.33 362.16 184.33 289.81 39.33"/><polygon class="b18edf21-115a-4701-a1ed-e5fe6469863e" points="113.18 39.33 185.83 39.33 113.18 184.33 40.83 184.33 113.18 39.33"/><polygon class="aead8993-d48f-459c-9239-1e1d994123b2" points="113.18 329.33 185.83 329.33 113.18 184.33 40.83 184.33 113.18 329.33"/><polygon class="a868668e-3fd9-4738-a192-d7b07086f313" points="217.01 39.33 289.66 39.33 217.01 184.33 144.66 184.33 217.01 39.33"/><polygon class="a4c2ee00-469d-4365-a89a-049885994e78" points="217.01 329.33 289.66 329.33 217.01 184.33 144.66 184.33 217.01 329.33"/><polygon class="ed3adc8c-d0fe-4134-9361-7856c1a3a87e" points="434.81 39.33 362.16 39.33 434.81 184.33 507.16 184.33 434.81 39.33"/><polygon class="a0865104-4ccb-4556-9f2c-6758e25671b7" points="434.81 329.33 362.16 329.33 434.81 184.33 507.16 184.33 434.81 329.33"/><polygon class="a06ff3b9-59dd-4a82-a35f-fe367f75994e" points="362.01 39.33 434.66 39.33 362.01 184.33 289.66 184.33 362.01 39.33"/><path class="add259b1-534f-49b6-be9f-03acde3a224b" d="M186.38,426.7a20.77,20.77,0,0,1-8.55,1.54c-9.11,0-16-5.76-16-16.39,0-10.15,6.85-17,16.89-17a17.62,17.62,0,0,1,7.68,1.42l-1,3.4a15.51,15.51,0,0,0-6.51-1.33c-7.6,0-12.62,4.86-12.62,13.35,0,7.92,4.56,13,12.4,13a16.94,16.94,0,0,0,6.85-1.33Z" transform="translate(-31.67 -33.17)"/><path class="add259b1-534f-49b6-be9f-03acde3a224b" d="M212,415.91c0,8.59-6,12.36-11.55,12.36-6.29,0-11.16-4.59-11.16-12,0-7.77,5.11-12.31,11.53-12.31C207.47,404,212,408.84,212,415.91Zm-18.41.27c0,5.09,2.92,8.92,7,8.92s7.07-3.78,7.07-9.05c0-3.93-2-8.89-7-8.89S193.56,411.78,193.56,416.18Z" transform="translate(-31.67 -33.17)"/><path class="add259b1-534f-49b6-be9f-03acde3a224b" d="M237.39,393.66v28.09c0,2.06.08,4.39.19,6h-3.75l-.21-4h-.12a8.49,8.49,0,0,1-7.87,4.55c-5.63,0-10-4.76-10-11.8,0-7.76,4.78-12.47,10.43-12.47,3.57,0,6,1.67,7,3.52h.09V393.66ZM233.19,414a9.32,9.32,0,0,0-.17-1.81,6.25,6.25,0,0,0-6.12-4.85c-4.37,0-7,3.83-7,8.93,0,4.72,2.34,8.63,6.9,8.63A6.38,6.38,0,0,0,233,419.8a6.88,6.88,0,0,0,.2-1.81Z" transform="translate(-31.67 -33.17)"/><path class="add259b1-534f-49b6-be9f-03acde3a224b" d="M246.79,416.89c.08,5.71,3.7,8.06,7.94,8.06a15.57,15.57,0,0,0,6.43-1.19l.74,3a18.57,18.57,0,0,1-7.74,1.48c-7.14,0-11.43-4.75-11.43-11.71S246.88,404,253.66,404c7.57,0,9.55,6.64,9.55,10.91a10.68,10.68,0,0,1-.14,2Zm12.36-3c0-2.66-1.09-6.84-5.83-6.84-4.31,0-6.14,3.9-6.48,6.84Z" transform="translate(-31.67 -33.17)"/><path class="add259b1-534f-49b6-be9f-03acde3a224b" d="M306.08,413.53c-.25-4.49-.55-10-.52-13.95h-.13c-1.12,3.75-2.46,7.83-4.07,12.26l-5.72,15.7h-3.15l-5.27-15.41c-1.54-4.57-2.8-8.72-3.71-12.55h-.11c-.11,4-.32,9.41-.64,14.27l-.86,13.89h-4l2.26-32.36h5.33L291,411c1.34,4,2.42,7.53,3.26,10.9h.13c.85-3.27,2-6.84,3.42-10.89l5.77-15.67H309l2,32.36h-4.11Z" transform="translate(-31.67 -33.17)"/><path class="add259b1-534f-49b6-be9f-03acde3a224b" d="M330.4,427.74l-.37-2.93h-.13a8.64,8.64,0,0,1-7.1,3.46c-4.69,0-7.09-3.33-7.09-6.67,0-5.62,5-8.71,14-8.64v-.5c0-1.88-.53-5.38-5.29-5.35a11.21,11.21,0,0,0-6,1.73l-1-2.81a14.58,14.58,0,0,1,7.66-2c7.1,0,8.83,4.85,8.83,9.5v8.68a36.39,36.39,0,0,0,.35,5.56Zm-.66-11.86c-4.57-.09-9.8.73-9.8,5.22a3.72,3.72,0,0,0,3.95,4,5.81,5.81,0,0,0,5.65-3.89,4.26,4.26,0,0,0,.2-1.33Z" transform="translate(-31.67 -33.17)"/><path class="add259b1-534f-49b6-be9f-03acde3a224b" d="M357.22,426.9a16.1,16.1,0,0,1-6.66,1.34c-7,0-11.59-4.76-11.59-11.86S343.85,404,351.45,404a13.48,13.48,0,0,1,5.86,1.24l-.93,3.24a10.33,10.33,0,0,0-4.94-1.11c-5.3,0-8.2,4-8.19,8.79,0,5.38,3.46,8.68,8.08,8.68a12.2,12.2,0,0,0,5.17-1.11Z" transform="translate(-31.67 -33.17)"/><path class="add259b1-534f-49b6-be9f-03acde3a224b" d="M362.17,393.66h4.2v14.49h.09a8.28,8.28,0,0,1,3-3,8.48,8.48,0,0,1,4.32-1.17c3.13,0,8.1,1.9,8.1,9.91v13.83h-4.21V414.38c0-3.75-1.41-6.9-5.36-6.9a6.15,6.15,0,0,0-5.7,4.22,5.65,5.65,0,0,0-.28,2v14h-4.2Z" transform="translate(-31.67 -33.17)"/><path class="add259b1-534f-49b6-be9f-03acde3a224b" d="M393.52,398a2.62,2.62,0,1,1-5.23,0,2.57,2.57,0,0,1,2.63-2.63A2.53,2.53,0,0,1,393.52,398Zm-4.71,29.78V404.52H393v23.22Z" transform="translate(-31.67 -33.17)"/><path class="add259b1-534f-49b6-be9f-03acde3a224b" d="M400,410.79c0-2.42-.08-4.34-.19-6.27h3.73l.23,3.82h.12A8.56,8.56,0,0,1,411.6,404c3.19,0,8.19,1.91,8.19,9.89v13.85h-4.2V414.35c0-3.75-1.42-6.89-5.37-6.89a6.08,6.08,0,0,0-5.69,4.33,6.74,6.74,0,0,0-.29,2v14H400Z" transform="translate(-31.67 -33.17)"/><path class="add259b1-534f-49b6-be9f-03acde3a224b" d="M429,416.89c.08,5.71,3.71,8.06,7.95,8.06a15.57,15.57,0,0,0,6.43-1.19l.74,3a18.67,18.67,0,0,1-7.75,1.48c-7.13,0-11.42-4.75-11.42-11.71S429.13,404,435.91,404c7.58,0,9.56,6.64,9.56,10.91a9.72,9.72,0,0,1-.15,2Zm12.36-3c0-2.66-1.09-6.84-5.82-6.84-4.31,0-6.15,3.9-6.49,6.84Z" transform="translate(-31.67 -33.17)"/><polyline class="b10aa147-f1e1-4cbf-8313-59f49144413c" points="434.66 381.96 545.55 381.96 543.43 2.51 2.51 2.5 4.63 381.95 113.33 381.96"/></svg>