<?xml version="1.0" encoding="utf-8"?>
<!-- Generator: Adobe Illustrator 16.0.0, SVG Export Plug-In . SVG Version: 6.00 Build 0)  -->
<!DOCTYPE svg PUBLIC "-//W3C//DTD SVG 1.1//EN" "http://www.w3.org/Graphics/SVG/1.1/DTD/svg11.dtd">
<svg version="1.1" id="Layer_1" xmlns="http://www.w3.org/2000/svg" xmlns:xlink="http://www.w3.org/1999/xlink" x="0px" y="0px"
	 width="700px" height="600px" viewBox="0 0 700 600" enable-background="new 0 0 700 600" xml:space="preserve">
<path opacity="0.5" fill="#85BBCE" enable-background="new    " d="M152.671,128.893c0,0,64.769-49.298,124.5,4.498
	c63.325,57.032,58.086,83.671,101.591,60.722c54.873-28.949,179.883,87.68,134.041,104.288
	c-57.092,20.681,12.75,84.711,1.661,203.833c-5.501,59.063-56.988,35.937-95.549,12.78c-16.037-9.631-35.241-11.706-47.231-5.484
	c0,0-70.042,35.12-146.727-16.291c-47.519-31.856-115.396-8.824-140.75-5.001c-44.939,6.775-84.335-9.361-84.335-20.388V127.146
	C-0.126,127.146,104.584,174.77,152.671,128.893L152.671,128.893z"/>
<path fill="#2EA3DC" d="M152.046,116.5c0,0,63.398-49.299,121.866,4.497c61.983,57.031,56.857,83.67,99.439,60.72
	c53.713-28.947,176.075,87.681,131.204,104.287c-55.882,20.684,12.482,84.714,1.627,203.835
	c-5.382,59.063-55.782,35.936-93.526,12.779c-15.697-9.63-34.496-11.705-46.229-5.481c0,0-68.563,35.118-143.622-16.293
	c-46.514-31.855-112.955-8.823-137.772-5.003c-43.99,6.778-82.551-9.358-82.551-20.384V114.753
	C2.482,114.753,104.976,162.377,152.046,116.5L152.046,116.5z"/>
<path fill="#2EA3DC" d="M93.086,476.37"/>
<line fill="none" stroke="#85BBCE" stroke-linecap="round" stroke-miterlimit="10" x1="170.843" y1="432.018" x2="225.176" y2="432.018"/>
<line fill="none" stroke="#85BBCE" stroke-linecap="round" stroke-miterlimit="10" x1="360.16" y1="359.905" x2="406.283" y2="359.905"/>
<line fill="none" stroke="#85BBCE" stroke-linecap="round" stroke-miterlimit="10" x1="391.203" y1="476.092" x2="461.636" y2="476.092"/>
<polygon fill="#F4F4F4" points="113.681,369.753 112.594,379.006 106.079,395.92 112.036,397.752 116.618,380.108 117.219,370.161 
	"/>
<polygon fill="#071A34" points="99.76,414.479 102.671,443.911 101.701,469.788 111.729,469.788 112.268,467.862 105.394,466.948 
	109.059,444.035 112.367,415.543 "/>
<polygon fill="#071A34" points="96.447,414.151 94.167,439.222 78.816,459.617 80.65,469.234 85.231,469.234 82.483,467.175 
	82.024,460.99 96.688,444.492 109.975,414.938 "/>
<polygon fill="#F05424" points="117.219,370.161 117.04,360.837 115.166,360.603 113.681,369.753 "/>
<g>
	<path fill="#F05424" d="M98.99,383.081c-0.692,3.394-0.73,8.575,4.359,9.394c5.05,0.812,8.094-2.39,8.834-5.771
		c0.739-3.38-0.512-7.729-5.734-8.403C103.016,377.856,99.542,380.37,98.99,383.081z"/>
	<path fill="#071A34" d="M102.647,392.239c-3.632-0.977-5.011-4.478-4.486-8.015c0.641-4.326,4.908-6.667,8.288-5.927
		c0.203,0.047,0.387,0.126,0.582,0.19c0.068,0.523,0.039,1.064-0.111,1.495c-0.581,1.67-2.066,3.065-3.76,3.575
		C103.16,383.561,102.099,391.145,102.647,392.239z"/>
	<path fill="#F05424" d="M102.226,384.139c-0.516-0.074-1.046,0.056-1.502,0.304c-1.47,0.801-0.955,3.005,0.344,3.705
		c0.418,0.224,0.893,0.33,1.367,0.377c0.41,0.038,0.849,0.027,1.199-0.188c0.339-0.209,0.554-0.586,0.63-0.978
		c0.076-0.395,0.031-0.799-0.054-1.187C104.013,385.284,103.156,384.278,102.226,384.139z"/>
	<path fill="#F8F6F0" d="M107.798,382.089c0.461,1.24,1.594,1.96,2.53,1.615c0.935-0.352,1.318-1.637,0.855-2.876
		c-0.462-1.236-1.595-1.962-2.53-1.611C107.719,379.564,107.334,380.854,107.798,382.089z"/>
</g>
<circle fill="#8E584B" cx="116.22" cy="359.55" r="2.109"/>
<path fill="#F8F6F0" d="M124.019,373.699l-3.201,1.062c-1.302,3.771-3.472,7.181-6.333,9.961l-5.991,5.82l-7.378,4.983l-5.48,20.328
	l17.143,1.615l0.567-22.398l6.364-7.952c2.618-3.271,4.388-7.136,5.157-11.257L124.019,373.699z"/>
<path fill="#F8F6F0" d="M132.145,323.03h-23.892c-4.082,0-7.391,3.308-7.391,7.391v23.894c0,4.08,3.309,7.392,7.391,7.392h23.892
	c4.083,0,7.392-3.312,7.392-7.392v-23.894C139.537,326.338,136.228,323.03,132.145,323.03z"/>
<path fill="#F05424" d="M124.648,360.963c0,1.166,0.942,2.105,2.108,2.105c1.165,0,2.109-0.939,2.109-2.105
	c0-1.165-0.944-2.107-2.109-2.107C125.59,358.854,124.648,359.798,124.648,360.963z"/>
<polygon fill="#F05424" points="120.483,375.877 124.699,377.374 128.088,361.926 125.671,361.375 "/>
<path fill="#F05424" d="M129.568,337.53c0,5.413-9.809,19.791-9.809,19.791s-9.807-14.378-9.807-19.791
	c0-5.419,4.393-9.813,9.807-9.813C125.177,327.719,129.568,332.111,129.568,337.53z"/>
<path fill="#F8F6F0" d="M124.46,336.711c0,2.595-2.104,4.695-4.701,4.695c-2.594,0-4.698-2.102-4.698-4.695
	c0-2.597,2.104-4.698,4.698-4.698C122.356,332.013,124.46,334.114,124.46,336.711z"/>
<path opacity="0.5" fill="none" stroke="#3C62AE" stroke-width="2" stroke-linecap="round" stroke-miterlimit="10" enable-background="new    " d="
	M146.438,469.597"/>
<path opacity="0.5" fill="none" stroke="#3C62AE" stroke-width="2" stroke-linecap="round" stroke-miterlimit="10" enable-background="new    " d="
	M70.551,469.597"/>
<path fill="#F8F6F0" d="M306.667,180.064h-83.855c-4.735,0-8.576,3.838-8.576,8.575v200.522c0,4.735,3.841,8.576,8.576,8.576h83.855
	c4.737,0,8.574-3.841,8.574-8.576V188.639C315.242,183.902,311.405,180.064,306.667,180.064z"/>
<path fill="#071A34" d="M306.667,180.064h-83.855c-4.735,0-8.576,3.838-8.576,8.575v8.689h101.006v-8.689
	C315.242,183.902,311.405,180.064,306.667,180.064z"/>
<path fill="#071A34" d="M214.236,378.226v10.937c0,4.735,3.841,8.576,8.576,8.576h83.855c4.737,0,8.574-3.841,8.574-8.576v-10.937
	H214.236z"/>
<path fill="#F05424" d="M299.375,203.24h-23.892c-4.082,0-7.391,3.309-7.391,7.39v23.893c0,4.083,3.309,7.392,7.391,7.392h23.892
	c4.083,0,7.394-3.31,7.394-7.392V210.63C306.769,206.549,303.458,203.24,299.375,203.24z"/>
<path fill="#2EA3DC" d="M299.375,320.582h-23.892c-4.082,0-7.391,3.308-7.391,7.392v23.893c0,4.08,3.309,7.39,7.391,7.39h23.892
	c4.083,0,7.394-3.31,7.394-7.39v-23.893C306.769,323.89,303.458,320.582,299.375,320.582z"/>
<path fill="#F05424" d="M253.7,320.582h-23.894c-4.082,0-7.391,3.308-7.391,7.392v23.893c0,4.08,3.309,7.39,7.391,7.39H253.7
	c4.082,0,7.391-3.31,7.391-7.39v-23.893C261.091,323.89,257.782,320.582,253.7,320.582z"/>
<line fill="none" stroke="#85BBCE" stroke-linecap="round" stroke-miterlimit="10" x1="213.83" y1="398.725" x2="322.668" y2="398.725"/>
<g>
	<g>
		<g>
			
				<rect x="308.157" y="365.527" transform="matrix(-0.164 -0.9865 0.9865 -0.164 44.6846 769.925)" fill="#071A34" width="80.867" height="1.001"/>
		</g>
		<g>
			
				<rect x="283.819" y="365.536" transform="matrix(-0.164 -0.9865 0.9865 -0.164 16.3493 745.925)" fill="#071A34" width="80.867" height="0.997"/>
		</g>
		<g>
			<rect x="320.45" y="342.576" fill="#071A34" width="24.564" height="1"/>
		</g>
		<g>
			<rect x="322.189" y="353.229" fill="#071A34" width="24.561" height="0.996"/>
		</g>
		<g>
			<rect x="323.929" y="363.88" fill="#071A34" width="24.56" height="0.996"/>
		</g>
		<g>
			<rect x="325.666" y="374.529" fill="#071A34" width="24.561" height="0.998"/>
		</g>
		<g>
			<rect x="327.406" y="385.18" fill="#071A34" width="24.561" height="0.998"/>
		</g>
		<g>
			<rect x="329.144" y="395.827" fill="#071A34" width="24.562" height="1"/>
		</g>
	</g>
	<g>
		<g>
			
				<rect x="309.781" y="325.575" transform="matrix(-0.9866 -0.1632 0.1632 -0.9866 556.6653 777.749)" fill="#85BBCE" width="0.999" height="80.866"/>
		</g>
		<g>
			
				<rect x="334.113" y="325.565" transform="matrix(-0.9865 -0.1635 0.1635 -0.9865 604.8685 781.785)" fill="#85BBCE" width="0.997" height="80.864"/>
		</g>
		<g>
			<rect x="313.86" y="342.576" fill="#85BBCE" width="24.562" height="1"/>
		</g>
		<g>
			<rect x="312.123" y="353.229" fill="#85BBCE" width="24.56" height="0.996"/>
		</g>
		<g>
			<rect x="310.382" y="363.88" fill="#85BBCE" width="24.562" height="0.996"/>
		</g>
		<g>
			<rect x="308.642" y="374.529" fill="#85BBCE" width="24.565" height="0.998"/>
		</g>
		<g>
			<rect x="306.906" y="385.18" fill="#85BBCE" width="24.559" height="0.998"/>
		</g>
		<g>
			<rect x="305.167" y="395.827" fill="#85BBCE" width="24.56" height="1"/>
		</g>
	</g>
	<g>
		<rect x="314.916" y="324.883" fill="#85BBCE" width="29.955" height="2.994"/>
	</g>
</g>
<g>
	<polygon fill="#F8F6F0" points="371.021,311.427 368.089,281.264 364.318,249.007 367.252,248.591 373.953,279.169 384.43,280.007 
		395.32,249.007 398.253,249.426 390.291,282.521 390.712,310.591 	"/>
	<path fill="#F05424" d="M374.75,270.219c-0.793,2.891,0.456,7.528,3.348,8.319c2.891,0.793,6.329-2.562,7.118-5.452
		c0.793-2.89-0.907-5.876-3.8-6.67C378.525,265.626,375.54,267.326,374.75,270.219z"/>
	<path fill="#071A34" d="M378.614,268.549c-0.591-0.162-1.419-0.567-1.734-1.125c-0.028-0.051-0.042-0.1-0.06-0.153
		c1.285-0.925,2.949-1.305,4.596-0.855c2.893,0.794,4.593,3.78,3.8,6.67c-0.563,2.062-2.479,4.355-4.579,5.215
		c0.039-0.583,0.178-1.159,0.329-1.727c0.597-2.286,1.267-4.555,1.996-6.799C381.486,269.48,380.031,269.071,378.614,268.549z"/>
	<path fill="#F26D5A" d="M381.991,272.969c0.394-0.285,0.929-0.417,1.372-0.224c0.104,0.043,0.201,0.104,0.281,0.184
		c0.219,0.216,0.281,0.544,0.254,0.85c-0.073,0.839-0.764,1.542-1.568,1.792c-0.229,0.07-0.473,0.11-0.708,0.076
		c-0.233-0.04-0.466-0.155-0.601-0.35C380.516,274.574,381.428,273.379,381.991,272.969z"/>
	<polygon fill="#071A34" points="390.712,310.591 387.803,356.852 384.604,356.852 381.887,310.967 379.025,311.086 
		377.279,357.983 374.813,357.926 371.021,311.427 370.464,305.695 390.643,305.963 	"/>
	<polygon fill="#071A34" points="387.803,356.852 394.841,357.627 394.587,358.717 384.283,358.717 384.604,356.852 	"/>
	<polygon fill="#071A34" points="377.279,357.983 377.279,359.298 367.613,359.66 367.613,358.454 374.813,357.926 	"/>
	<path fill="#071A34" d="M379.938,274.14c-1.764,0.19-3.162-1.583-4.918-1.806c-0.109-0.017-0.229-0.024-0.326,0.025
		c-0.131,0.061-0.203,0.198-0.27,0.326c-0.227,0.435-0.447,0.87-0.67,1.302c-0.229,0.443-0.457,0.893-0.561,1.381
		c-0.117,0.585-0.043,1.191,0.056,1.777c0.08,0.466,0.174,0.937,0.385,1.358c0.373,0.76,1.093,1.313,1.884,1.604
		c0.795,0.288,1.659,0.333,2.5,0.257c0.575-0.05,1.151-0.158,1.666-0.418c1.142-0.574,1.834-1.922,1.64-3.184
		c-0.048-0.312-0.148-0.623-0.112-0.936c0.033-0.306,0.188-0.583,0.339-0.852c0.175-0.306,1.335-1.828,0.427-1.836
		c-0.281-0.003-0.679,0.471-0.92,0.609C380.71,273.948,380.337,274.098,379.938,274.14z"/>
	<g>
		<polygon fill="#F05424" points="391.563,259.695 395.782,259.695 398.253,249.426 395.32,249.007 		"/>
		<polygon fill="#F05424" points="367.252,248.591 364.318,249.007 365.566,259.695 369.688,259.695 		"/>
	</g>
	<path fill="#85BBCE" d="M438.889,215.972h-97.664c-4.79,0-8.676,3.887-8.676,8.678v14.542c0,4.791,3.887,8.675,8.676,8.675h97.664
		c4.793,0,8.679-3.885,8.679-8.675V224.65C447.566,219.859,443.682,215.972,438.889,215.972z"/>
	<path fill="#F8F6F0" d="M436.004,215.972h-97.662c-4.792,0-8.676,3.887-8.676,8.678v14.542c0,4.791,3.884,8.675,8.676,8.675h97.662
		c4.793,0,8.679-3.885,8.679-8.675V224.65C444.683,219.859,440.797,215.972,436.004,215.972z"/>
	<path fill="#F05424" d="M437.403,240.499l-4.688-4.874c1.207-1.436,1.868-3.238,1.868-5.117c0-4.384-3.57-7.953-7.955-7.953
		c-4.386,0-7.951,3.569-7.951,7.953c0,4.386,3.565,7.957,7.951,7.957c1.646,0,3.215-0.497,4.554-1.441l4.728,4.913
		c0.199,0.207,0.461,0.321,0.747,0.321c0.271,0,0.526-0.105,0.718-0.292C437.788,241.569,437.801,240.913,437.403,240.499
		L437.403,240.499z M426.63,224.633c3.241,0,5.877,2.637,5.877,5.875c0,3.244-2.636,5.88-5.877,5.88c-3.24,0-5.876-2.636-5.876-5.88
		C420.754,227.27,423.39,224.633,426.63,224.633L426.63,224.633z"/>
	
		<path opacity="0.5" fill="none" stroke="#3C62AE" stroke-width="2" stroke-linecap="round" stroke-miterlimit="10" enable-background="new    " d="
		M442.992,359.759"/>
	
		<path opacity="0.5" fill="none" stroke="#3C62AE" stroke-width="2" stroke-linecap="round" stroke-miterlimit="10" enable-background="new    " d="
		M339.147,359.759"/>
	<circle fill="#F05424" cx="365.414" cy="247.333" r="2.513"/>
	<path fill="#F05424" d="M398.277,248.042c0,1.391-1.123,2.512-2.512,2.512c-1.393,0-2.517-1.122-2.517-2.512
		c0-1.388,1.124-2.513,2.517-2.513C397.154,245.528,398.277,246.653,398.277,248.042z"/>
</g>
<g>
	<circle fill="#85BBCE" cx="273.156" cy="256.414" r="2.752"/>
	<path fill="#2EA3DC" d="M267.409,243.446l-23.535-4.131c-4.02-0.707-7.85,1.981-8.557,6.001l-4.13,23.533
		c-0.707,4.019,1.98,7.852,6,8.557l23.534,4.131c4.02,0.705,7.852-1.981,8.557-6.001l4.132-23.532
		C274.115,247.983,271.429,244.153,267.409,243.446z"/>
	<g>
		<path fill="#85BBCE" d="M153.514,376.895h17.307c0.396,0,0.756-0.231,0.917-0.596c0.158-0.368,0.087-0.786-0.183-1.082
			l-16.643-17.971l-1.465,1.354l15.09,16.298h-15.022L153.514,376.895L153.514,376.895z"/>
	</g>
	<g>
		<polygon fill="#071A34" points="275.094,255.728 282.523,258.632 304.126,260.674 296.914,265.763 281.735,262.118 
			273.979,258.563 		"/>
		<circle fill="#F05424" cx="295.537" cy="254.616" r="6.058"/>
		<polygon fill="#071A34" points="323.875,277.504 321.383,302.711 322.214,324.873 313.626,324.873 313.166,323.222 
			319.049,322.436 315.911,302.814 313.078,278.417 		"/>
		<path fill="#F05424" d="M271.64,258.344c3.165,1.289,13.79,4.112,17.194,3.838l7.132-0.576l7.372-1.94l16.19,7.932l-8.629,11.961
			l-14.751-12.271l-8.716-0.389c-3.584-0.158-13.755-4.04-16.841-5.866L271.64,258.344z"/>
		<path fill="#071A34" d="M302.128,250.904c-1.26-2.854-6.327-3.549-9.151-2.22c-0.169,0.08-0.315,0.189-0.474,0.285
			c0.047,0.473,0.183,0.944,0.399,1.292c0.846,1.351,2.433,2.277,4.026,2.387c0,0,0.118,0.315,0.297,0.801
			c0.187-0.208,0.396-0.387,0.639-0.483c0.436-0.169,0.93-0.161,1.381-0.037c1.453,0.41,1.443,2.451,0.441,3.327
			c-0.322,0.281-0.716,0.473-1.123,0.608c-0.049,0.018-0.102,0.021-0.152,0.034c-0.133,1.962-0.014,2.193,0.415,2.803
			C301.133,258.01,303.792,254.665,302.128,250.904z"/>
		<polygon fill="#85BBCE" points="350.308,274.155 335.818,280.468 319.135,267.644 310.577,279.385 335.808,287.13 
			350.746,277.112 353.922,280.657 354.991,279.619 		"/>
		<circle fill="#85BBCE" cx="269.959" cy="259.232" r="2.752"/>
	</g>
	<g>
		<path fill="#85BBCE" d="M152.622,188.603h19.537v196.375h-19.537V188.603z M170.163,190.6h-15.544v192.378h15.544V190.6z"/>
	</g>
	<rect x="149.948" y="374.469" fill="#071A34" width="24.885" height="17.829"/>
	<g>
		<path fill="#85BBCE" d="M153.514,303.094h17.307c0.396,0,0.756-0.234,0.917-0.598c0.158-0.365,0.087-0.788-0.183-1.08
			l-16.643-17.971l-1.465,1.356l15.09,16.297h-15.022L153.514,303.094L153.514,303.094z"/>
	</g>
	<g>
		<path fill="#85BBCE" d="M153.514,321.547h17.307c0.396,0,0.756-0.238,0.917-0.6c0.158-0.363,0.087-0.787-0.183-1.079
			l-16.643-17.976l-1.465,1.358l15.09,16.295h-15.022L153.514,321.547L153.514,321.547z"/>
	</g>
	<g>
		<path fill="#85BBCE" d="M153.514,339.996h17.307c0.396,0,0.756-0.235,0.917-0.598c0.158-0.364,0.087-0.79-0.183-1.08
			l-16.643-17.974l-1.465,1.358L168.536,338h-15.022V339.996L153.514,339.996z"/>
	</g>
	<g>
		<path fill="#85BBCE" d="M153.514,358.444h17.307c0.396,0,0.756-0.234,0.917-0.6c0.158-0.363,0.087-0.786-0.183-1.077
			l-16.643-17.975l-1.465,1.358l15.09,16.294h-15.022L153.514,358.444L153.514,358.444z"/>
	</g>
	<g>
		<path fill="#85BBCE" d="M153.514,285.088h17.307c0.396,0,0.756-0.236,0.917-0.601c0.158-0.363,0.087-0.786-0.183-1.077
			l-16.643-17.972l-1.465,1.356l15.09,16.296h-15.022L153.514,285.088L153.514,285.088z"/>
	</g>
	<g>
		<path fill="#85BBCE" d="M153.514,267.048h17.307c0.396,0,0.756-0.236,0.917-0.599c0.158-0.364,0.087-0.786-0.183-1.076
			L154.911,247.4l-1.465,1.355l15.09,16.297h-15.022V267.048L153.514,267.048z"/>
	</g>
	<g>
		<path fill="#85BBCE" d="M153.514,249.041h17.307c0.396,0,0.756-0.236,0.917-0.599c0.158-0.364,0.087-0.786-0.183-1.077
			l-16.643-17.972l-1.465,1.356l15.09,16.293h-15.022L153.514,249.041L153.514,249.041z"/>
	</g>
	<g>
		<path fill="#85BBCE" d="M153.514,231.034h17.307c0.396,0,0.756-0.236,0.917-0.6c0.158-0.365,0.087-0.788-0.183-1.077
			l-16.643-17.974l-1.465,1.354l15.09,16.298h-15.022L153.514,231.034L153.514,231.034z"/>
	</g>
	<g>
		<path fill="#85BBCE" d="M153.514,213.025h17.307c0.396,0,0.756-0.234,0.917-0.598c0.158-0.363,0.087-0.787-0.183-1.079
			l-16.643-17.973l-1.465,1.357l15.09,16.296h-15.022L153.514,213.025L153.514,213.025z"/>
	</g>
	<g>
		<path fill="#85BBCE" d="M153.514,195.02h17.307c0.396,0,0.756-0.235,0.917-0.601c0.158-0.363,0.087-0.786-0.183-1.077
			l-16.643-17.974l-1.465,1.357l15.09,16.297h-15.022L153.514,195.02L153.514,195.02z"/>
	</g>
	<rect x="152.654" y="168.677" fill="#071A34" width="31.673" height="26.699"/>
	<rect x="105.059" y="168.677" fill="#071A34" width="31.672" height="15.336"/>
	<g>
		<path fill="#85BBCE" d="M105.584,170.627h156.434c0.552,0,0.999-0.447,0.999-0.999c0-0.551-0.447-1-0.999-1H105.584
			c-0.551,0-0.998,0.449-0.998,1C104.586,170.18,105.033,170.627,105.584,170.627z"/>
	</g>
	<g>
		<rect x="253.753" y="174.289" fill="#85BBCE" width="0.998" height="64.903"/>
	</g>
	<path fill="#85BBCE" d="M161.502,168.963"/>
	<rect x="141.458" y="389.11" fill="#85BBCE" width="41.863" height="7.848"/>
	<g>
		<path fill="#85BBCE" d="M168.375,170.365c0.128,0,0.255-0.048,0.352-0.146l8.342-8.342h76.471l7.843,7.842
			c0.194,0.195,0.51,0.195,0.705,0c0.195-0.195,0.195-0.511,0-0.706l-8.134-8.135h-77.298l-8.634,8.634
			c-0.196,0.194-0.196,0.51,0,0.706C168.12,170.317,168.247,170.365,168.375,170.365z"/>
	</g>
	<g>
		<path fill="#85BBCE" d="M104.918,170.365c0.18,0,0.355-0.097,0.444-0.268l8.347-15.946h20.245l7.848,15.441
			c0.127,0.246,0.427,0.341,0.672,0.219c0.246-0.124,0.344-0.425,0.219-0.671l-8.126-15.988h-21.46l-8.627,16.481
			c-0.128,0.244-0.034,0.546,0.21,0.674C104.761,170.348,104.841,170.365,104.918,170.365z"/>
	</g>
	<circle fill="#85BBCE" cx="254.252" cy="174.289" r="3.661"/>
	<g>
		<path fill="#85BBCE" d="M232.607,161.871c0.211,0,0.411-0.138,0.475-0.353c0.081-0.264-0.066-0.544-0.331-0.624l-73.923-22.541
			c-0.113-0.033-0.233-0.027-0.34,0.019l-35.038,14.787c-0.253,0.107-0.373,0.4-0.264,0.653c0.106,0.254,0.399,0.375,0.653,0.267
			l34.869-14.715l73.75,22.485C232.509,161.863,232.556,161.871,232.607,161.871z"/>
	</g>
	<g>
		<path fill="#85BBCE" d="M170.312,170.433c0.119,0,0.237-0.021,0.355-0.066c0.514-0.195,0.774-0.773,0.578-1.289l-11.64-30.628
			c-0.157-0.415-0.567-0.678-1.015-0.64c-0.444,0.036-0.81,0.361-0.898,0.797l-6.016,29.872c-0.11,0.539,0.241,1.068,0.781,1.176
			c0.539,0.105,1.066-0.242,1.176-0.782l5.334-26.48l10.411,27.396C169.53,170.187,169.91,170.433,170.312,170.433z"/>
	</g>
	<circle fill="#85BBCE" cx="158.672" cy="138.804" r="2.012"/>
	<g>
		<path fill="#85BBCE" d="M243.13,170.459c0.111,0,0.222-0.035,0.313-0.11l9.805-7.925v7.409c0,0.277,0.224,0.5,0.499,0.5
			c0.277,0,0.499-0.223,0.499-0.5v-8.455c0-0.193-0.11-0.368-0.282-0.45c-0.172-0.084-0.38-0.06-0.53,0.063l-10.617,8.582
			c-0.215,0.174-0.249,0.488-0.074,0.703C242.84,170.396,242.984,170.459,243.13,170.459z"/>
	</g>
	<g>
		<path fill="#85BBCE" d="M233.648,170.459c0.111,0,0.221-0.035,0.313-0.11l9.806-7.925v7.409c0,0.277,0.223,0.5,0.5,0.5
			c0.275,0,0.499-0.223,0.499-0.5v-8.455c0-0.193-0.11-0.368-0.284-0.45c-0.173-0.084-0.379-0.06-0.53,0.063l-10.618,8.582
			c-0.216,0.174-0.249,0.488-0.073,0.703C233.359,170.396,233.503,170.459,233.648,170.459z"/>
	</g>
	<g>
		<path fill="#85BBCE" d="M224.167,170.459c0.109,0,0.221-0.035,0.314-0.11l9.805-7.925v7.409c0,0.277,0.224,0.5,0.5,0.5
			c0.275,0,0.498-0.223,0.498-0.5v-8.455c0-0.193-0.11-0.368-0.283-0.45c-0.173-0.084-0.38-0.06-0.53,0.063l-10.619,8.582
			c-0.213,0.174-0.248,0.488-0.073,0.703C223.878,170.396,224.022,170.459,224.167,170.459z"/>
	</g>
	<g>
		<path fill="#85BBCE" d="M214.687,170.459c0.11,0,0.22-0.035,0.313-0.11l9.805-7.925v7.409c0,0.277,0.222,0.5,0.499,0.5
			c0.277,0,0.499-0.223,0.499-0.5v-8.455c0-0.193-0.111-0.368-0.284-0.45c-0.173-0.084-0.378-0.06-0.528,0.063l-10.619,8.582
			c-0.213,0.174-0.247,0.488-0.074,0.703C214.396,170.396,214.541,170.459,214.687,170.459z"/>
	</g>
	<g>
		<path fill="#85BBCE" d="M205.204,170.459c0.112,0,0.222-0.035,0.315-0.11l9.805-7.925v7.409c0,0.277,0.222,0.5,0.499,0.5
			c0.275,0,0.5-0.223,0.5-0.5v-8.455c0-0.193-0.111-0.368-0.287-0.45c-0.171-0.084-0.377-0.06-0.527,0.063l-10.618,8.582
			c-0.216,0.174-0.25,0.488-0.075,0.703C204.914,170.396,205.06,170.459,205.204,170.459z"/>
	</g>
	<g>
		<path fill="#85BBCE" d="M195.723,170.459c0.111,0,0.223-0.035,0.315-0.11l9.805-7.925v7.409c0,0.277,0.222,0.5,0.499,0.5
			c0.275,0,0.499-0.223,0.499-0.5v-8.455c0-0.193-0.112-0.368-0.284-0.45c-0.172-0.084-0.38-0.06-0.528,0.063l-10.62,8.582
			c-0.215,0.174-0.248,0.488-0.074,0.703C195.434,170.396,195.578,170.459,195.723,170.459z"/>
	</g>
	<g>
		<path fill="#85BBCE" d="M186.243,170.459c0.11,0,0.219-0.035,0.313-0.11l9.805-7.925v7.409c0,0.277,0.225,0.5,0.5,0.5
			s0.499-0.223,0.499-0.5v-8.455c0-0.193-0.11-0.368-0.284-0.45c-0.172-0.084-0.378-0.06-0.529,0.063l-10.619,8.582
			c-0.214,0.174-0.247,0.488-0.073,0.703C185.953,170.396,186.097,170.459,186.243,170.459z"/>
	</g>
	<g>
		<path fill="#85BBCE" d="M176.761,170.459c0.11,0,0.222-0.035,0.314-0.11l9.805-7.925v7.409c0,0.277,0.223,0.5,0.499,0.5
			c0.277,0,0.5-0.223,0.5-0.5v-8.455c0-0.193-0.109-0.368-0.284-0.45c-0.173-0.084-0.379-0.06-0.529,0.063l-10.619,8.582
			c-0.214,0.174-0.247,0.488-0.074,0.703C176.47,170.396,176.616,170.459,176.761,170.459z"/>
	</g>
	<g>
		<path fill="#85BBCE" d="M120.709,170.459c0.143,0,0.283-0.06,0.382-0.176l12.735-15.029v14.579c0,0.277,0.222,0.5,0.498,0.5
			c0.277,0,0.499-0.223,0.499-0.5v-15.94c0-0.208-0.131-0.396-0.327-0.467c-0.197-0.074-0.417-0.015-0.552,0.146l-13.615,16.067
			c-0.178,0.21-0.151,0.525,0.057,0.703C120.48,170.421,120.596,170.459,120.709,170.459z"/>
	</g>
	<g>
		<path fill="#85BBCE" d="M110.916,170.459c0.161,0,0.321-0.078,0.417-0.223l9.702-14.682v14.279c0,0.277,0.223,0.5,0.499,0.5
			c0.275,0,0.5-0.223,0.5-0.5v-15.94c0-0.22-0.144-0.415-0.355-0.478c-0.213-0.061-0.438,0.02-0.561,0.203L110.5,169.685
			c-0.151,0.231-0.089,0.54,0.141,0.693C110.726,170.433,110.822,170.459,110.916,170.459z"/>
	</g>
	<circle fill="#071A34" cx="254.252" cy="240.522" r="3.143"/>
	<line fill="none" x1="123.472" y1="397.703" x2="199.359" y2="397.703"/>
</g>
<g>
	<polygon fill="#F8F6F0" points="439.359,429.99 438.228,414.334 439.978,402.813 445.927,368.855 443.053,368.445 436.488,398.396 
		426.232,399.216 415.563,368.855 412.692,369.265 420.487,401.676 423.225,414.065 422.898,429.166 	"/>
	<polygon fill="#071A34" points="425.227,388.136 424.216,397.091 430.313,397.578 434.035,388.136 	"/>
	<path fill="#F05424" d="M436.461,391.421c0,3.398-2.753,6.157-6.148,6.157c-3.402,0-6.157-2.759-6.157-6.157
		c0-3.401,2.755-6.153,6.157-6.153C433.708,385.268,436.461,388.02,436.461,391.421z"/>
	<path fill="#85BBCE" d="M441.686,331.016h-23.895c-4.079,0-7.39,3.311-7.39,7.394v23.894c0,4.078,3.311,7.39,7.39,7.39h23.895
		c4.08,0,7.392-3.312,7.392-7.39v-23.894C449.076,334.325,445.766,331.016,441.686,331.016z"/>
	<path fill="#071A34" d="M432.567,391.012c0.12,0.06,0.261,0.111,0.385,0.065c0.126-0.049,0.189-0.18,0.271-0.289
		c0.317-0.417,1.02-0.413,1.393-0.047c0.372,0.37,0.408,1.002,0.149,1.458c-0.257,0.457-0.762,0.744-1.282,0.817
		c-0.34,1.221-0.479,2.495-0.413,3.758c0.844,0.063,1.69,0.122,2.537,0.188c0.165,0.009,0.344,0.021,0.477-0.083
		c0.119-0.095,0.164-0.259,0.196-0.408c0.313-1.446,0.473-2.935,0.47-4.418c-0.004-1.445-0.175-2.942-0.922-4.179
		c-0.894-1.483-4.561-3.925-6.35-2.555C427.514,386.825,431.205,390.358,432.567,391.012z"/>
	<path fill="#071A34" d="M427.47,388.895c-1.041,1.021-2.395,1.801-3.849,1.86c-0.065-1.626,0.646-3.267,1.884-4.325
		c0.695-0.596,3.029-1.914,3.983-1.28C430.48,385.804,428.173,388.206,427.47,388.895z"/>
	<polygon fill="#F8F6F0" points="439.753,383.506 443.151,384.696 445.927,368.855 443.053,368.445 	"/>
	<polygon fill="#F8F6F0" points="419.968,381.391 415.984,382.962 412.692,369.265 415.563,368.855 	"/>
	<polygon fill="#F8F6F0" points="433.278,398.652 430.333,403.881 428.854,399.009 	"/>
	<path fill="#F05424" d="M411.405,367.214c0,1.361,1.103,2.461,2.462,2.461c1.358,0,2.465-1.1,2.465-2.461
		c0-1.362-1.105-2.463-2.465-2.463C412.507,364.751,411.405,365.852,411.405,367.214z"/>
	<path fill="#F05424" d="M442.313,367.675c0,1.358,1.099,2.46,2.459,2.46s2.464-1.102,2.464-2.46c0-1.359-1.104-2.463-2.464-2.463
		S442.313,366.314,442.313,367.675z"/>
	<path fill="#071A34" d="M423.868,444.775l3.791-10.509l0.354-3.335l-4.941-12.782l-5.244,23.484
		C420.07,442.834,422.258,443.963,423.868,444.775z"/>
	<g>
		<g>
			<circle fill="#F05424" cx="429.651" cy="343.762" r="5.063"/>
			<path fill="#F05424" d="M439.598,359.119c-0.091-5.281-4.394-9.535-9.693-9.535c-5.303,0-9.603,4.254-9.692,9.535H439.598z"/>
		</g>
	</g>
	
		<path opacity="0.5" fill="none" stroke="#3C62AE" stroke-width="2" stroke-linecap="round" stroke-miterlimit="10" enable-background="new    " d="
		M467.09,476.092"/>
	
		<path opacity="0.5" fill="none" stroke="#3C62AE" stroke-width="2" stroke-linecap="round" stroke-miterlimit="10" enable-background="new    " d="
		M391.203,476.092"/>
	<polygon fill="#071A34" points="438.761,418.883 423.071,418.149 410.999,472.219 405.395,468.81 412.218,477.087 428.291,432.523 
		428.048,452.735 438.944,467.175 439.64,472.388 439.929,474.605 441.871,474.374 442.223,466.429 433.786,452.715 
		439.739,430.005 	"/>
</g>
<path fill="none" stroke="#4AB2CD" stroke-width="2" stroke-linecap="round" stroke-miterlimit="10" d="M289.354,405.696"/>
<g>
	<path fill="#85BBCE" d="M211.027,282.09h-23.891c-4.083,0-7.391,3.307-7.391,7.391v23.894c0,4.08,3.308,7.387,7.391,7.387h23.891
		c4.083,0,7.393-3.307,7.393-7.387v-23.894C218.419,285.397,215.11,282.09,211.027,282.09z"/>
	<polygon fill="#F8F6F0" points="189.006,383.526 186.095,353.571 182.35,321.539 185.262,321.123 191.918,351.492 202.317,352.327 
		213.135,321.539 216.047,321.956 208.142,354.82 208.559,382.692 	"/>
	<path fill="#F05424" d="M186.925,319.875c0,1.375-1.118,2.496-2.496,2.496c-1.379,0-2.496-1.121-2.496-2.496
		c0-1.378,1.117-2.494,2.496-2.494C185.808,317.381,186.925,318.497,186.925,319.875z"/>
	<circle fill="#F05424" cx="213.551" cy="320.707" r="2.496"/>
	<circle fill="#F05424" cx="197.355" cy="342.39" r="6.349"/>
	<circle fill="#071A34" cx="197.355" cy="343.388" r="6.349"/>
	<polygon fill="#071A34" points="208.559,382.692 205.674,428.637 202.494,428.637 199.794,383.065 196.956,383.185 195.22,429.761 
		192.77,429.704 189.006,383.526 188.453,377.838 208.489,378.096 	"/>
	<polygon fill="#071A34" points="205.674,428.637 212.661,429.405 212.408,430.492 202.174,430.492 202.494,428.637 	"/>
	<polygon fill="#071A34" points="195.22,429.761 195.22,431.063 185.622,431.428 185.622,430.228 192.77,429.704 	"/>
	
		<path opacity="0.5" fill="none" stroke="#3C62AE" stroke-width="2" stroke-linecap="round" stroke-miterlimit="10" enable-background="new    " d="
		M230.441,431.158"/>
	
		<path opacity="0.5" fill="none" stroke="#3C62AE" stroke-width="2" stroke-linecap="round" stroke-miterlimit="10" enable-background="new    " d="
		M174.527,431.158"/>
</g>
<g>
	<path fill="#071A34" d="M349.665,435.752c0.003,0.077-0.01,0.151-0.029,0.227c-0.005,0.02-0.008,0.036-0.017,0.058
		c-0.017,0.059-0.042,0.121-0.075,0.181c-0.008,0.018-0.012,0.03-0.021,0.044c-0.04,0.068-0.092,0.14-0.151,0.209
		c-0.012,0.019-0.025,0.03-0.042,0.05c-0.057,0.063-0.119,0.125-0.19,0.189c-0.01,0.009-0.019,0.017-0.028,0.022
		c-0.083,0.069-0.173,0.137-0.272,0.201c-0.027,0.021-0.058,0.04-0.084,0.06c-0.083,0.053-0.168,0.101-0.261,0.147
		c-0.035,0.023-0.069,0.039-0.105,0.061c-0.097,0.05-0.201,0.098-0.309,0.144c-0.041,0.02-0.081,0.039-0.122,0.059
		c-0.155,0.064-0.322,0.127-0.498,0.188l-17.027,5.894c-0.158,0.058-0.343,0.097-0.512,0.146c-0.254,0.071-0.501,0.146-0.77,0.204
		c-0.322,0.073-0.661,0.139-1.007,0.19c-0.209,0.03-0.426,0.056-0.644,0.08c-0.266,0.031-0.531,0.065-0.805,0.087
		c-0.057,0.004-0.109,0.008-0.167,0.012c-0.437,0.026-0.88,0.047-1.323,0.047c-0.01,0-0.02,0-0.032,0
		c-0.463,0.005-0.927-0.008-1.384-0.036c-0.002,0-0.013,0-0.017-0.005c-0.456-0.025-0.905-0.07-1.34-0.129
		c-0.011-0.004-0.021-0.004-0.035-0.004c-0.425-0.06-0.836-0.133-1.229-0.222c-0.016-0.002-0.028-0.007-0.041-0.007
		c-0.404-0.09-0.785-0.197-1.14-0.316l-16.766-5.745c-0.093-0.03-0.177-0.065-0.264-0.103c-0.077-0.026-0.161-0.056-0.235-0.087
		c-0.078-0.033-0.147-0.067-0.22-0.101c-0.069-0.034-0.146-0.066-0.21-0.101c-0.063-0.032-0.118-0.069-0.175-0.104
		c-0.064-0.033-0.133-0.07-0.188-0.107c-0.052-0.036-0.094-0.07-0.142-0.105c-0.053-0.037-0.11-0.076-0.159-0.116
		c-0.045-0.042-0.08-0.079-0.12-0.118c-0.037-0.039-0.081-0.072-0.111-0.111c-0.043-0.047-0.07-0.095-0.104-0.144
		c-0.02-0.031-0.045-0.059-0.064-0.091c-0.021-0.039-0.034-0.078-0.048-0.116c-0.051-0.121-0.085-0.239-0.086-0.362l0.06,7.501
		c0.001,0.12,0.035,0.239,0.087,0.359c0.015,0.042,0.026,0.079,0.046,0.116c0.02,0.033,0.045,0.062,0.065,0.092
		c0.033,0.047,0.063,0.095,0.104,0.146c0.027,0.034,0.065,0.063,0.098,0.099c0.044,0.041,0.083,0.087,0.135,0.133
		c0.032,0.023,0.073,0.053,0.108,0.08c0.063,0.046,0.122,0.093,0.192,0.139c0.041,0.028,0.094,0.054,0.139,0.086
		c0.074,0.041,0.143,0.082,0.224,0.125c0.046,0.024,0.102,0.05,0.151,0.069c0.089,0.045,0.179,0.091,0.279,0.134
		c0.063,0.023,0.133,0.05,0.196,0.073c0.098,0.04,0.192,0.075,0.297,0.111c0.002,0.004,0.003,0.004,0.004,0.004l16.767,5.745
		c0.187,0.062,0.384,0.12,0.59,0.181c0.165,0.046,0.337,0.087,0.515,0.126c0.012,0.004,0.025,0.007,0.037,0.011
		c0.01,0,0.022,0.001,0.039,0.009c0.128,0.025,0.265,0.055,0.4,0.084c0.148,0.026,0.301,0.055,0.455,0.08
		c0.125,0.016,0.252,0.034,0.38,0.055c0.009,0,0.018,0,0.03,0.005c0.011,0,0.025,0.001,0.038,0.001
		c0.143,0.021,0.293,0.04,0.441,0.054c0.147,0.018,0.297,0.031,0.444,0.045c0.139,0.014,0.282,0.021,0.419,0.028
		c0.005,0.005,0.012,0.005,0.017,0.005s0.013,0,0.02,0c0.149,0.008,0.306,0.018,0.46,0.024c0.159,0.003,0.316,0.01,0.472,0.01
		c0.146,0.003,0.292,0.003,0.435,0.003c0.01,0,0.018,0,0.027,0c0.009,0,0.02,0,0.033,0c0.169,0,0.342-0.003,0.514-0.01
		c0.189-0.003,0.378-0.011,0.565-0.026c0.07-0.001,0.142-0.009,0.211-0.014c0.059-0.001,0.111-0.007,0.169-0.014
		c0.1-0.008,0.21-0.009,0.311-0.021c0.169-0.015,0.33-0.045,0.494-0.064c0.22-0.021,0.436-0.046,0.645-0.08
		c0.062-0.008,0.127-0.012,0.188-0.021c0.247-0.044,0.489-0.089,0.727-0.142c0.033-0.002,0.059-0.018,0.092-0.023
		c0.273-0.06,0.521-0.135,0.772-0.208c0.133-0.037,0.278-0.066,0.403-0.108c0.036-0.011,0.073-0.023,0.11-0.033l17.023-5.894
		c0.169-0.058,0.33-0.119,0.476-0.178c0.009-0.006,0.013-0.011,0.023-0.013c0.043-0.021,0.081-0.04,0.125-0.058
		c0.087-0.042,0.173-0.075,0.253-0.119c0.019-0.007,0.033-0.018,0.052-0.021c0.035-0.021,0.07-0.045,0.109-0.062
		c0.05-0.028,0.1-0.052,0.148-0.078c0.04-0.025,0.07-0.051,0.108-0.07c0.027-0.021,0.057-0.034,0.085-0.059
		c0.018-0.01,0.039-0.022,0.056-0.033c0.074-0.055,0.141-0.105,0.202-0.158c0.004,0,0.009-0.007,0.014-0.007
		c0.01-0.01,0.019-0.018,0.028-0.028c0.044-0.038,0.089-0.078,0.127-0.116c0.024-0.022,0.046-0.048,0.067-0.073
		c0.014-0.017,0.028-0.028,0.039-0.047c0.01-0.012,0.023-0.021,0.032-0.035c0.042-0.052,0.082-0.104,0.111-0.157
		c0.003-0.006,0.003-0.011,0.008-0.019c0.009-0.013,0.014-0.026,0.021-0.041c0.018-0.036,0.039-0.065,0.053-0.104
		c0.009-0.027,0.018-0.056,0.023-0.082c0.008-0.019,0.015-0.037,0.019-0.053c0.001-0.012,0.006-0.021,0.008-0.037
		c0.014-0.06,0.021-0.117,0.021-0.18c0-0.001,0-0.008,0-0.013L349.665,435.752z"/>
	<g>
		<path fill="#85BBCE" d="M347.544,433.992c2.865,0.979,2.822,2.593-0.083,3.597l-17.027,5.894
			c-2.906,1.005-7.583,1.025-10.447,0.047l-16.766-5.745c-2.862-0.979-2.832-2.591,0.074-3.601l17.023-5.89
			c2.908-1.008,7.599-1.023,10.46-0.045L347.544,433.992z"/>
	</g>
</g>
<g>
	<path fill="#85BBCE" d="M275.365,427.575c0.001,0.078-0.014,0.151-0.031,0.227c-0.003,0.02-0.01,0.038-0.016,0.06
		c-0.018,0.059-0.044,0.12-0.076,0.179c-0.009,0.017-0.012,0.032-0.02,0.044c-0.042,0.069-0.092,0.14-0.151,0.211
		c-0.014,0.017-0.027,0.03-0.043,0.049c-0.058,0.063-0.119,0.125-0.193,0.188c-0.009,0.011-0.018,0.016-0.026,0.022
		c-0.083,0.07-0.174,0.138-0.272,0.203c-0.026,0.021-0.058,0.04-0.085,0.058c-0.081,0.054-0.167,0.102-0.258,0.148
		c-0.037,0.023-0.069,0.038-0.107,0.06c-0.094,0.052-0.2,0.099-0.308,0.144c-0.042,0.02-0.081,0.041-0.123,0.059
		c-0.156,0.066-0.322,0.128-0.499,0.188l-17.025,5.896c-0.159,0.057-0.343,0.097-0.512,0.144c-0.253,0.074-0.5,0.146-0.77,0.207
		c-0.322,0.072-0.661,0.136-1.008,0.188c-0.208,0.032-0.425,0.055-0.643,0.08c-0.265,0.032-0.531,0.067-0.805,0.088
		c-0.056,0.004-0.11,0.006-0.166,0.011c-0.438,0.027-0.881,0.049-1.322,0.049c-0.01,0-0.021,0-0.033,0
		c-0.464,0.005-0.928-0.009-1.385-0.037c-0.003,0-0.01,0-0.015-0.004c-0.458-0.028-0.905-0.071-1.342-0.132
		c-0.01-0.001-0.021-0.001-0.034-0.001c-0.425-0.062-0.839-0.134-1.232-0.223c-0.015-0.003-0.025-0.006-0.038-0.006
		c-0.403-0.091-0.786-0.201-1.141-0.317l-16.766-5.744c-0.092-0.032-0.176-0.066-0.263-0.104c-0.079-0.025-0.163-0.055-0.236-0.088
		c-0.078-0.032-0.146-0.069-0.22-0.1c-0.069-0.034-0.145-0.065-0.209-0.102c-0.063-0.031-0.117-0.067-0.173-0.103
		c-0.066-0.035-0.134-0.069-0.19-0.107c-0.052-0.036-0.094-0.07-0.141-0.104c-0.054-0.039-0.111-0.078-0.159-0.117
		c-0.046-0.041-0.08-0.08-0.12-0.119c-0.037-0.038-0.081-0.073-0.111-0.111c-0.042-0.048-0.071-0.094-0.104-0.142
		c-0.021-0.032-0.047-0.06-0.064-0.091c-0.022-0.04-0.032-0.078-0.047-0.117c-0.051-0.122-0.086-0.241-0.088-0.364l0.061,7.501
		c0.001,0.122,0.035,0.241,0.087,0.359c0.015,0.044,0.028,0.081,0.049,0.119c0.018,0.033,0.043,0.06,0.063,0.091
		c0.034,0.047,0.063,0.094,0.104,0.146c0.026,0.032,0.065,0.062,0.097,0.1c0.044,0.041,0.083,0.086,0.136,0.131
		c0.031,0.023,0.072,0.054,0.107,0.08c0.062,0.046,0.121,0.095,0.191,0.141c0.043,0.027,0.095,0.053,0.14,0.085
		c0.074,0.041,0.143,0.08,0.225,0.125c0.044,0.024,0.1,0.049,0.148,0.068c0.091,0.047,0.18,0.093,0.281,0.134
		c0.061,0.024,0.131,0.049,0.194,0.074c0.097,0.038,0.191,0.076,0.297,0.112c0.001,0.003,0.004,0.003,0.004,0.003l16.769,5.745
		c0.187,0.063,0.383,0.12,0.587,0.18c0.165,0.047,0.337,0.088,0.515,0.126c0.011,0.005,0.025,0.008,0.037,0.013
		c0.012,0,0.022,0.001,0.037,0.006c0.131,0.027,0.266,0.057,0.402,0.085c0.15,0.026,0.302,0.056,0.455,0.079
		c0.126,0.018,0.253,0.034,0.378,0.056c0.01,0,0.021,0,0.031,0.005c0.013,0,0.025,0.003,0.04,0.003
		c0.143,0.021,0.292,0.038,0.44,0.053c0.147,0.018,0.297,0.032,0.445,0.046c0.14,0.012,0.279,0.021,0.419,0.027
		c0.006,0.005,0.011,0.005,0.017,0.005c0.004,0,0.012,0,0.019,0c0.151,0.009,0.306,0.018,0.462,0.023
		c0.158,0.004,0.313,0.011,0.471,0.011c0.146,0.004,0.29,0.004,0.434,0.004c0.009,0,0.018,0,0.025,0c0.011,0,0.022,0,0.033,0
		c0.172,0,0.342-0.004,0.515-0.011c0.19-0.003,0.377-0.011,0.564-0.026c0.072-0.001,0.143-0.008,0.212-0.013
		c0.059-0.003,0.112-0.009,0.169-0.015c0.102-0.007,0.209-0.01,0.312-0.021c0.168-0.016,0.328-0.047,0.493-0.064
		c0.22-0.022,0.435-0.049,0.645-0.083c0.062-0.005,0.128-0.011,0.188-0.021c0.246-0.043,0.488-0.088,0.726-0.143
		c0.032-0.002,0.061-0.016,0.093-0.021c0.272-0.06,0.521-0.134,0.773-0.208c0.132-0.037,0.277-0.066,0.401-0.107
		c0.034-0.011,0.073-0.023,0.109-0.034l17.022-5.895c0.171-0.056,0.33-0.118,0.479-0.179c0.007-0.004,0.013-0.009,0.021-0.011
		c0.044-0.02,0.084-0.039,0.126-0.058c0.087-0.041,0.174-0.075,0.253-0.119c0.02-0.007,0.032-0.017,0.052-0.023
		c0.037-0.021,0.07-0.042,0.109-0.06c0.05-0.028,0.102-0.053,0.148-0.079c0.04-0.024,0.07-0.051,0.107-0.069
		c0.028-0.021,0.058-0.035,0.085-0.06c0.018-0.008,0.038-0.021,0.056-0.035c0.073-0.051,0.14-0.104,0.203-0.156
		c0.003,0,0.008-0.007,0.013-0.007c0.007-0.01,0.016-0.016,0.025-0.026c0.046-0.038,0.091-0.078,0.13-0.116
		c0.023-0.024,0.045-0.049,0.065-0.074c0.015-0.016,0.028-0.028,0.041-0.049c0.01-0.01,0.023-0.021,0.032-0.034
		c0.041-0.052,0.08-0.104,0.11-0.155c0.003-0.009,0.003-0.014,0.009-0.02c0.007-0.015,0.012-0.028,0.019-0.04
		c0.019-0.038,0.038-0.067,0.051-0.104c0.012-0.028,0.018-0.058,0.025-0.083c0.007-0.021,0.013-0.036,0.018-0.054
		c0.001-0.012,0.006-0.021,0.01-0.037c0.012-0.059,0.019-0.118,0.019-0.178c0-0.001,0-0.009,0-0.014L275.365,427.575z"/>
	<g>
		<path fill="#F05424" d="M273.243,425.815c2.864,0.98,2.822,2.594-0.086,3.596l-17.025,5.896
			c-2.907,1.003-7.583,1.026-10.447,0.046l-16.766-5.743c-2.863-0.98-2.832-2.593,0.074-3.602l17.025-5.89
			c2.907-1.008,7.597-1.024,10.459-0.045L273.243,425.815z"/>
	</g>
</g>
<line fill="none" stroke="#85BBCE" stroke-linecap="round" stroke-miterlimit="10" x1="297.477" y1="405.696" x2="367.907" y2="405.696"/>
</svg>
